<svg width="489" height="346" viewBox="0 0 489 346" fill="none" xmlns="http://www.w3.org/2000/svg">
    <path opacity="0.1"
        d="M163.1 345.63C186.875 345.63 206.15 342.534 206.15 338.716C206.15 334.897 186.875 331.801 163.1 331.801C139.324 331.801 120.05 334.897 120.05 338.716C120.05 342.534 139.324 345.63 163.1 345.63Z"
        fill="#003193" />
    <path opacity="0.1"
        d="M397.112 345.824C426.781 345.824 450.832 342.729 450.832 338.91C450.832 335.091 426.781 331.996 397.112 331.996C367.444 331.996 343.393 335.091 343.393 338.91C343.393 342.729 367.444 345.824 397.112 345.824Z"
        fill="#003193" />
    <path opacity="0.1"
        d="M6.90236 149.423H51.7416V210.538H10.185C10.0746 211.166 9.96852 211.797 9.85365 212.429H51.7416V261.717C51.6665 261.695 51.6002 261.669 51.5295 261.642C50.3454 261.174 49.1702 260.679 47.995 260.149L47.2439 259.809C46.0658 259.252 44.8876 258.663 43.7095 258.042C43.2986 257.825 42.8877 257.6 42.4812 257.37C35.9406 253.706 29.9988 249.064 24.8619 243.603C24.7117 243.457 24.5703 243.303 24.4201 243.161C23.7044 242.384 23.0019 241.597 22.3215 240.793L21.5704 239.91C20.7663 238.925 19.9887 237.913 19.2332 236.888C19.1228 236.738 19.0168 236.587 18.9019 236.446C15.8293 232.186 13.2781 227.573 11.3028 222.706C11.2409 222.56 11.1879 222.401 11.1305 222.264C10.5237 220.703 9.98619 219.127 9.51787 217.537C9.31464 216.869 9.12024 216.211 8.95236 215.517C8.8905 215.314 8.83748 215.115 8.78888 214.917C6.27941 205.122 5.9834 194.947 5.9834 184.843C5.9834 183.663 5.9834 182.479 5.9834 181.308C5.9834 177.221 6.032 173.108 6.10269 168.999C6.10269 167.935 6.14687 166.874 6.16896 165.805C6.23081 163.092 6.31917 160.38 6.43404 157.667C6.46055 156.912 6.4959 156.16 6.53566 155.409C6.53566 154.976 6.55775 154.543 6.60193 154.11C6.70797 152.538 6.79633 150.978 6.90236 149.423Z"
        fill="#003193" />
    <path opacity="0.1"
        d="M51.7415 81.3752H27.146C31.1441 75.1174 35.5126 69.1039 40.228 63.3671C43.8817 58.8783 47.7387 54.5044 51.7415 50.2896V81.3752Z"
        fill="#003193" />
    <path opacity="0.1"
        d="M51.7418 83.2661V147.532H7.04395C7.04395 147.346 7.07487 147.156 7.08813 146.971C7.12789 146.462 7.16765 145.954 7.21183 145.451C7.26043 144.859 7.31345 144.262 7.37088 143.683C7.42832 143.105 7.49017 142.398 7.55644 141.757C7.62272 141.117 7.68457 140.467 7.75968 139.826C7.83478 139.186 7.90105 138.545 7.98058 137.909C8.06011 137.273 8.1308 136.628 8.21474 135.992C8.28101 135.461 8.3517 134.936 8.42239 134.406C8.524 133.659 8.63004 132.908 8.74491 132.166C8.74491 132.055 8.77584 131.94 8.79351 131.834C9.59989 126.401 10.6986 121.015 12.085 115.699C13.5361 110.124 15.3892 104.66 17.6297 99.3524C20.0109 93.7996 22.7989 88.4303 25.971 83.2882L51.7418 83.2661Z"
        fill="#003193" />
    <path opacity="0.1"
        d="M62.4468 149.418V210.538H158.218V149.418H62.4468ZM62.4468 212.425V264.911C62.9946 265.026 63.538 265.137 64.0771 265.23C64.8105 265.371 65.5394 265.499 66.2861 265.61C66.4275 265.632 66.5733 265.654 66.7279 265.667C67.0195 265.716 67.3199 265.755 67.6115 265.795C68.3493 265.897 69.0827 265.981 69.8206 266.047C70.1696 266.082 70.523 266.113 70.8765 266.14L71.7292 266.206C72.1931 266.241 72.6526 266.268 73.1076 266.281C73.3904 266.281 73.6731 266.308 73.9647 266.316C74.1856 266.316 74.4065 266.316 74.6363 266.316C74.866 266.316 75.193 266.316 75.4713 266.316C75.8513 266.316 76.2312 266.316 76.6068 266.316H77.1148C77.4948 266.316 77.8747 266.316 78.2503 266.281H78.2768C78.5375 266.281 78.8025 266.281 79.0676 266.246C79.1412 266.25 79.215 266.25 79.2885 266.246C79.5094 266.246 79.7303 266.246 79.9424 266.215H80.097L81.5771 266.1C82.0631 266.056 82.5535 265.998 83.0483 265.945L84.0557 265.826C88.1538 265.252 92.2064 264.39 96.1833 263.246C105.117 260.754 113.856 257.268 122.785 254.715C134.329 251.423 147.084 249.806 158.24 253.831V212.425H62.4468ZM158.218 81.3752V0.00722527C147.732 -0.106374 137.276 1.12 127.101 3.65657C102.85 9.74911 81.0911 22.9636 62.4468 39.8407V81.3708H67.2537V83.2573H62.4468V147.532H158.218V83.2617H86.9893V81.3752H158.218ZM281.231 53.8903C275.231 53.6782 269.266 51.7784 263.872 48.8448C253.556 43.2338 245.316 34.5699 236.109 27.258C216.978 12.0288 193.253 2.83922 168.914 0.559487V81.3752H305.632L305.972 81.0173L281.231 53.8903ZM293.685 51.6812L306.891 66.1725V47.8817C302.468 48.4295 298.594 49.7328 293.703 51.6635L293.685 51.6812ZM306.891 277.945V212.425H278.752C278.677 212.146 278.602 211.863 278.513 211.581C278.597 211.863 278.668 212.146 278.748 212.425H168.932V259.809C169.974 260.582 171.004 261.395 172.024 262.221C173.124 263.104 174.211 264.037 175.302 264.951L176.403 265.861C176.928 266.303 177.458 266.745 177.993 267.16C179.053 268.02 180.124 268.869 181.205 269.705C181.74 270.147 182.287 270.545 182.831 270.96C191.458 277.556 200.559 283.508 210.06 288.769C212.189 289.947 214.338 291.098 216.506 292.22C217.95 292.958 219.404 293.691 220.862 294.402C223.053 295.471 225.262 296.502 227.489 297.495C248.018 306.71 269.726 313.034 291.993 316.285C296.938 317.016 301.903 317.59 306.886 318.008V277.94H307.328L306.891 277.945ZM168.932 83.2617V147.532H306.909V83.2617H168.932ZM168.932 149.418V210.538H306.909V149.418H168.932ZM317.618 47.8021V68.2049L334.473 49.7107C328.889 48.8095 323.27 48.1659 317.618 47.78V47.8021ZM317.618 149.44V210.538H451.817V149.418L317.618 149.44ZM451.327 282.796L451.8 212.425H317.618V318.711C326.262 319.074 334.919 318.97 343.552 318.401H343.702C347.826 318.142 351.93 317.765 356.016 317.27H356.108C377.903 314.734 399.214 309.047 419.375 300.389M477.694 159.483C477.191 158.294 476.665 157.115 476.13 155.948C475.132 153.739 474.076 151.592 472.989 149.445H462.518V210.538H488.991C488.978 193.237 484.6 175.564 477.707 159.461L477.694 159.483ZM462.518 212.447V272.974C469.976 265.826 476.276 257.648 480.813 248.299C486.27 237.042 488.766 224.853 488.969 212.438L462.518 212.447ZM462.518 131.631V147.536H472.008C469.137 142.061 465.974 136.744 462.531 131.609L462.518 131.631ZM371.505 59.7928C370.807 59.5277 370.109 59.2582 369.407 58.9976C361.998 56.2616 354.427 53.9863 346.738 52.1849L320.945 80.4916L320.45 81.0173L320.781 81.3796H412.58C399.795 72.579 386.012 65.3254 371.519 59.7707L371.505 59.7928ZM415.271 83.2838H319.5L317.618 85.0069V147.532H334.115H334.142H451.835V117.246C441.189 104.369 428.9 92.9442 415.284 83.2617L415.271 83.2838Z"
        fill="#003193" />
    <path opacity="0.1"
        d="M51.7418 115.682V147.532H7.04395C7.04395 147.346 7.07487 147.156 7.08813 146.971C7.12789 146.462 7.16765 145.954 7.21183 145.451C7.26043 144.859 7.31345 144.262 7.37088 143.683C7.42832 143.105 7.49017 142.398 7.55644 141.757C7.62272 141.117 7.68457 140.467 7.75968 139.826C7.83478 139.186 7.90105 138.545 7.98058 137.909C8.06011 137.273 8.1308 136.628 8.21474 135.992C8.28101 135.461 8.3517 134.936 8.42239 134.406C8.524 133.659 8.63004 132.908 8.74491 132.166C8.74491 132.055 8.77584 131.94 8.79351 131.834C9.59989 126.401 10.6986 121.015 12.085 115.699L51.7418 115.682Z"
        fill="#003193" />
    <path opacity="0.1"
        d="M6.90236 149.423H51.7416V210.538H10.185C10.0746 211.166 9.96852 211.797 9.85365 212.429H51.7416V261.717C51.6665 261.695 51.6002 261.669 51.5295 261.642C50.3454 261.174 49.1702 260.679 47.995 260.149L47.2439 259.809C46.0658 259.252 44.8876 258.663 43.7095 258.042C43.2986 257.825 42.8877 257.6 42.4812 257.37C35.9406 253.706 29.9988 249.064 24.8619 243.603C24.7117 243.457 24.5703 243.303 24.4201 243.161C23.7044 242.384 23.0019 241.597 22.3215 240.793L21.5704 239.91C20.7663 238.925 19.9887 237.913 19.2332 236.888C19.1228 236.738 19.0168 236.587 18.9019 236.446C15.8293 232.186 13.2781 227.573 11.3028 222.706C11.2409 222.56 11.1879 222.401 11.1305 222.264C10.5237 220.703 9.98619 219.127 9.51787 217.537C9.31464 216.869 9.12024 216.211 8.95236 215.517C8.8905 215.314 8.83748 215.115 8.78888 214.917C6.27941 205.122 5.9834 194.947 5.9834 184.843C5.9834 183.663 5.9834 182.479 5.9834 181.308C5.9834 177.221 6.032 173.108 6.10269 168.999C6.10269 167.935 6.14687 166.874 6.16896 165.805C6.23081 163.092 6.31917 160.38 6.43404 157.667C6.46055 156.912 6.4959 156.16 6.53566 155.409C6.53566 154.976 6.55775 154.543 6.60193 154.11C6.70797 152.538 6.79633 150.978 6.90236 149.423Z"
        fill="#003193" />
    <path opacity="0.1" d="M96.1612 92.4647V147.532H62.4468V92.4647H67.2537V73.8203H86.9849V92.4647H96.1612Z"
        fill="#003193" />
    <path opacity="0.1" d="M96.1612 149.418H62.4512V210.533H96.1612V149.418Z" fill="#003193" />
    <path opacity="0.1"
        d="M62.4468 212.429H96.1612V263.237C92.1843 264.379 88.1317 265.24 84.0336 265.812L83.0262 265.936C82.5314 265.994 82.041 266.042 81.555 266.091C81.069 266.139 80.5654 266.175 80.075 266.206H79.9203C79.7083 266.206 79.4785 266.232 79.2709 266.237H79.0455C78.7805 266.237 78.5154 266.263 78.2503 266.272C77.8748 266.294 77.4992 266.298 77.1148 266.303C76.9514 266.303 76.7967 266.303 76.6333 266.303C76.2533 266.303 75.8778 266.303 75.4978 266.303H74.6628C74.4375 266.303 74.221 266.303 73.9868 266.303L73.1341 266.272C72.6923 266.272 72.2152 266.223 71.7557 266.192L70.9074 266.131L69.8515 266.033C69.1093 265.967 68.3714 265.883 67.6424 265.782L66.7588 265.658L66.317 265.596C65.5792 265.481 64.8502 265.357 64.108 265.216C63.5646 265.123 63.0255 265.008 62.4777 264.898L62.4468 212.429Z"
        fill="#003193" />
    <path opacity="0.1" d="M306.908 85.9609H279.11V147.527H306.908V85.9609Z" fill="#003193" />
    <path opacity="0.1" d="M306.913 149.418V210.538H168.932V184.175H242.427V199.727H279.11V149.418H306.913Z"
        fill="#003193" />
    <path opacity="0.1"
        d="M307.35 277.958H306.909V318.052C301.931 317.631 296.968 317.058 292.02 316.333C269.742 313.072 248.025 306.735 227.489 297.504C221.56 294.835 215.752 291.922 210.064 288.765C200.564 283.501 191.461 277.549 182.831 270.955C180.663 269.294 178.523 267.595 176.411 265.857C174.949 264.651 173.496 263.414 172.024 262.212C171.004 261.386 169.974 260.573 168.932 259.795V212.429H278.743C278.668 212.146 278.593 211.863 278.514 211.585C278.597 211.863 278.677 212.146 278.752 212.429H306.909V277.931C307.059 277.936 307.205 277.949 307.35 277.958Z"
        fill="#003193" />
    <path opacity="0.1"
        d="M379.41 81.3753H361.295V75.7466H369.416V58.98C370.12 59.2362 370.821 59.4998 371.519 59.7708V75.7466H379.41V81.3753Z"
        fill="#003193" />
    <path opacity="0.1"
        d="M423.051 147.532H334.124C334.124 147.532 334.124 147.532 334.155 147.554L334.115 147.532H317.618V85.9656H322.293V131.472H343.654V104.522H361.3V83.2661H379.414V104.539H397.06V131.49H423.051V147.532Z"
        fill="#003193" />
    <path opacity="0.1"
        d="M317.618 149.418V210.538H423.051V149.418H317.618ZM451.672 282.482L451.818 234.104H423.051V212.455H317.618V318.71C326.262 319.073 334.919 318.97 343.552 318.401H343.703C347.826 318.142 351.931 317.765 356.016 317.27H356.109C377.903 314.734 399.214 309.047 419.376 300.389"
        fill="#003193" />
    <path opacity="0.1"
        d="M464.391 212.429H488.987C488.77 224.839 486.278 237.029 480.827 248.286C476.289 257.639 469.985 265.817 462.536 272.961V234.082H464.391V212.429Z"
        fill="#003193" />
    <path opacity="0.1" d="M489 210.538H464.392V159.46H477.708C484.6 175.564 488.978 193.237 489 210.538Z"
        fill="#003193" />
    <path opacity="0.1" d="M306.913 103.077H292.02V122.38H306.913V103.077Z" fill="#003193" />
    <path opacity="0.1" d="M306.913 143.087H292.02V147.532H306.913V143.087Z" fill="#003193" />
    <path opacity="0.1" d="M306.913 149.418H292.02V162.385H306.913V149.418Z" fill="#003193" />
    <path opacity="0.1" d="M306.913 183.097H292.02V202.4H306.913V183.097Z" fill="#003193" />
    <path opacity="0.1" d="M306.913 223.107H292.02V242.41H306.913V223.107Z" fill="#003193" />
    <path opacity="0.1"
        d="M306.908 277.932C307.059 277.932 307.205 277.932 307.35 277.958H306.908V282.442H292.02V263.118H306.908V277.932Z"
        fill="#003193" />
    <path opacity="0.1" d="M306.909 303.119V318.03C301.931 317.609 296.968 317.036 292.02 316.312V303.119H306.909Z"
        fill="#003193" />
    <path opacity="0.1" d="M232.76 209.12H168.932V210.538H232.76V209.12Z" fill="#003193" />
    <path opacity="0.1" d="M232.76 212.425H168.932V217.859H232.76V212.425Z" fill="#003193" />
    <path opacity="0.1" d="M232.76 235.672H168.932V244.411H232.76V235.672Z" fill="#003193" />
    <path opacity="0.1"
        d="M232.755 262.226V270.965H182.831C180.663 269.309 178.521 267.61 176.407 265.866C174.944 264.66 173.495 263.423 172.02 262.226H232.755Z"
        fill="#003193" />
    <path opacity="0.1"
        d="M232.755 288.773V297.504H227.484C221.561 294.832 215.754 291.918 210.064 288.76L232.755 288.773Z"
        fill="#003193" />
    <path opacity="0.1" d="M356.121 155.343H343.556V167.908H356.121V155.343Z" fill="#003193" />
    <path opacity="0.1" d="M84.0646 96.7988H71.4995V109.364H84.0646V96.7988Z" fill="#003193" />
    <path opacity="0.1" d="M84.0646 125.984H71.4995V138.549H84.0646V125.984Z" fill="#003193" />
    <path opacity="0.1" d="M84.0646 155.17H71.4995V167.735H84.0646V155.17Z" fill="#003193" />
    <path opacity="0.1" d="M84.0646 184.352H71.4995V196.917H84.0646V184.352Z" fill="#003193" />
    <path opacity="0.1" d="M84.0646 213.538H71.4995V226.103H84.0646V213.538Z" fill="#003193" />
    <path opacity="0.1" d="M84.0646 242.724H71.4995V255.289H84.0646V242.724Z" fill="#003193" />
    <path opacity="0.1" d="M404.089 155.343H391.524V167.908H404.089V155.343Z" fill="#003193" />
    <path opacity="0.1" d="M356.121 186.336H343.556V198.901H356.121V186.336Z" fill="#003193" />
    <path opacity="0.1" d="M404.089 186.336H391.524V198.901H404.089V186.336Z" fill="#003193" />
    <path opacity="0.1" d="M356.121 217.324H343.556V229.889H356.121V217.324Z" fill="#003193" />
    <path opacity="0.1" d="M404.089 217.324H391.524V229.889H404.089V217.324Z" fill="#003193" />
    <path opacity="0.1" d="M356.121 248.317H343.556V260.882H356.121V248.317Z" fill="#003193" />
    <path opacity="0.1" d="M404.089 248.317H391.524V260.882H404.089V248.317Z" fill="#003193" />
    <path opacity="0.1" d="M356.121 279.31H343.556V291.875H356.121V279.31Z" fill="#003193" />
    <path opacity="0.1" d="M404.089 279.31H391.524V291.875H404.089V279.31Z" fill="#003193" />
    <path opacity="0.1" d="M343.556 318.402V310.299H356.117V317.248L343.556 318.402Z" fill="#003193" />
    <path opacity="0.1"
        d="M8.74023 131.825V139.013H51.7415V131.825H8.74023ZM13.0258 138.563H9.51782V132.267H13.0523L13.0258 138.563ZM17.3069 138.563H13.7724V132.267H17.3069V138.563ZM21.5792 138.563H18.0447V132.267H21.5792V138.563ZM25.8603 138.563H22.3303V132.267H25.8648L25.8603 138.563ZM30.137 138.563H26.6026V132.267H30.137V138.563ZM34.4182 138.563H30.8837V132.267H34.4182V138.563ZM38.6993 138.563H35.1648V132.267H38.6993V138.563ZM42.976 138.563H39.4415V132.267H42.976V138.563ZM47.2527 138.563H43.7183V132.267H47.2527V138.563ZM51.5294 138.563H47.995V132.267H51.5294V138.563Z"
        fill="#003193" />
    <path opacity="0.1"
        d="M8.74023 152.741V159.929H51.7415V152.741H8.74023ZM13.0258 159.474H9.51782V153.196H13.0523L13.0258 159.474ZM17.3069 159.474H13.7724V153.196H17.3069V159.474ZM21.5792 159.474H18.0447V153.196H21.5792V159.474ZM25.8603 159.474H22.3303V153.196H25.8648L25.8603 159.474ZM30.137 159.474H26.6026V153.196H30.137V159.474ZM34.4182 159.474H30.8837V153.196H34.4182V159.474ZM38.6993 159.474H35.1648V153.196H38.6993V159.474ZM42.976 159.474H39.4415V153.196H42.976V159.474ZM47.2527 159.474H43.7183V153.196H47.2527V159.474ZM51.5294 159.474H47.995V153.196H51.5294V159.474Z"
        fill="#003193" />
    <path opacity="0.1"
        d="M8.74023 173.665V180.866H51.7415V173.665H8.74023ZM13.0258 180.398H9.51782V174.115H13.0523L13.0258 180.398ZM17.3069 180.398H13.7724V174.115H17.3069V180.398ZM21.5792 180.398H18.0447V174.115H21.5792V180.398ZM25.8603 180.398H22.3303V174.115H25.8648L25.8603 180.398ZM30.137 180.398H26.6026V174.115H30.137V180.398ZM34.4182 180.398H30.8837V174.115H34.4182V180.398ZM38.6993 180.398H35.1648V174.115H38.6993V180.398ZM42.976 180.398H39.4415V174.115H42.976V180.398ZM47.2527 180.398H43.7183V174.115H47.2527V180.398ZM51.5294 180.398H47.995V174.115H51.5294V180.398Z"
        fill="#003193" />
    <path opacity="0.1"
        d="M8.74023 194.589V201.768H51.7415V194.589H8.74023ZM13.0258 201.322H9.51782V195.035H13.0523L13.0258 201.322ZM17.3069 201.322H13.7724V195.035H17.3069V201.322ZM21.5792 201.322H18.0447V195.035H21.5792V201.322ZM25.8603 201.322H22.3303V195.035H25.8648L25.8603 201.322ZM30.137 201.322H26.6026V195.035H30.137V201.322ZM34.4182 201.322H30.8837V195.035H34.4182V201.322ZM38.6993 201.322H35.1648V195.035H38.6993V201.322ZM42.976 201.322H39.4415V195.035H42.976V201.322ZM47.2527 201.322H43.7183V195.035H47.2527V201.322ZM51.5294 201.322H47.995V195.035H51.5294V201.322Z"
        fill="#003193" />
    <path opacity="0.1"
        d="M8.92578 215.508C9.09809 216.184 9.29248 216.86 9.49571 217.527V215.959H13.0302V222.241H11.1392C11.1967 222.387 11.2541 222.546 11.3115 222.683H51.7415V215.508H8.92578ZM17.3202 222.241H13.7857V215.959H17.3202V222.241ZM21.5924 222.241H18.058V215.959H21.5924V222.241ZM25.8736 222.241H22.3303V215.959H25.8647L25.8736 222.241ZM30.1503 222.241H26.6158V215.959H30.1503V222.241ZM34.4314 222.241H30.8969V215.959H34.4314V222.241ZM38.7125 222.241H35.1781V215.959H38.7125V222.241ZM42.9893 222.241H39.4548V215.959H42.9893V222.241ZM47.266 222.241H43.7315V215.959H47.266V222.241ZM51.5427 222.241H48.0082V215.959H51.5427V222.241Z"
        fill="#003193" />
    <path opacity="0.1"
        d="M18.9106 236.433C19.0211 236.574 19.1271 236.733 19.242 236.874H21.5792V239.892C21.831 240.192 22.0784 240.493 22.3347 240.776V236.857H25.8691V243.161H24.4377C24.5791 243.307 24.716 243.462 24.8795 243.603H51.7547V236.433H18.9106ZM30.137 243.161H26.6025V236.883H30.137V243.161ZM34.4181 243.161H30.8837V236.883H34.4181V243.161ZM38.6993 243.161H35.1648V236.883H38.6993V243.161ZM42.976 243.161H39.4415V236.883H42.976V243.161ZM47.2527 243.161H43.7182V236.883H47.2527V243.161ZM51.5294 243.161H47.9949V236.883H51.5294V243.161Z"
        fill="#003193" />
    <path opacity="0.1"
        d="M42.499 257.352C42.9011 257.582 43.312 257.794 43.7273 258.024V257.803H47.2617V259.791L48.0128 260.14V257.803H51.5473V261.624C51.6151 261.658 51.6861 261.685 51.7593 261.704V257.352H42.499Z"
        fill="#003193" />
    <path opacity="0.1"
        d="M334.124 147.532H334.151H334.124ZM306.909 277.927H307.351H306.909ZM278.514 211.581C278.598 211.863 278.668 212.146 278.748 212.424C278.677 212.146 278.602 211.863 278.514 211.581ZM334.124 147.518H334.151H334.124ZM67.2715 81.3618V83.2483H87.0071V81.3618H67.2715ZM306.909 277.927H307.351H306.909ZM278.514 211.581C278.598 211.863 278.668 212.146 278.748 212.424C278.677 212.146 278.602 211.863 278.514 211.581ZM334.124 147.518H334.151H334.124ZM306.909 277.914H307.351H306.909ZM278.514 211.581C278.598 211.863 278.668 212.146 278.748 212.424C278.677 212.146 278.602 211.863 278.514 211.581Z"
        fill="#003193" />
    <path
        d="M204.726 167.744C204.726 167.744 202.986 167.501 202.986 164.965C202.986 162.429 201.74 157.693 201.74 157.693C201.74 157.671 200.662 149.444 199.173 148.137C197.684 146.829 195.771 139.15 195.771 139.15C195.771 139.15 195.444 134.984 194.777 134.087C194.11 133.19 193.208 130.995 191.879 127.862C190.549 124.73 185.004 122.56 185.004 122.56C185.004 122.56 174.979 116.746 172.139 114.851C171.88 114.695 171.639 114.513 171.418 114.307C170.924 113.658 168.768 113.645 168.768 113.645C168.542 112.222 168.326 110.587 168.255 109.107C168.255 108.948 168.255 108.789 168.233 108.63C171.401 106.758 173.787 103.805 174.953 100.315C175.006 100.147 175.05 99.9707 175.099 99.8028C175.289 99.7403 175.463 99.6388 175.612 99.505C175.76 99.3711 175.879 99.2077 175.96 99.0252C176.217 98.4553 176.221 97.7882 176.539 97.258C176.91 96.6306 177.617 96.2949 178.174 95.8221C179.579 94.6292 179.941 92.619 179.875 90.7899C179.831 89.3099 179.592 87.8165 179.685 86.3453L179.711 85.9742C179.738 85.7533 179.769 85.5324 179.808 85.3203C180.025 84.2246 180.498 83.1908 180.763 82.104C181.028 81.0171 181.054 79.7933 180.436 78.8567C179.53 77.4826 177.644 77.2087 175.987 77.0673C174.109 76.9083 172.43 77.1159 171.228 75.5563C170.666 74.7412 170.033 73.9769 169.338 73.2722C169.09 73.0425 166.687 71.5756 166.687 71.4784C164.341 70.392 161.682 70.1881 159.198 70.9041C157.952 71.2664 156.777 71.8584 155.513 72.1544C152.787 72.7995 149.651 72.1014 147.335 73.661C146.045 74.5446 145.272 75.9496 144.548 77.3192C143.959 78.4472 143.361 79.5739 142.754 80.699C141.778 82.5502 140.783 84.4323 140.373 86.4823C140.286 86.9284 140.233 87.3803 140.213 87.8342V87.8563C140.213 88.0198 140.213 88.1832 140.213 88.3467V88.5544C140.213 88.709 140.213 88.8592 140.24 88.9962C140.267 89.1331 140.262 89.1773 140.275 89.2701C140.289 89.3629 140.311 89.5705 140.337 89.7119C140.364 89.8533 140.417 90.1007 140.47 90.2951C140.492 90.379 140.523 90.4586 140.549 90.5381C140.593 90.6883 140.646 90.8341 140.704 90.9799C140.735 91.055 140.766 91.1345 140.801 91.2096C140.867 91.3643 140.947 91.5145 141.026 91.6514C141.062 91.7133 141.088 91.7707 141.124 91.8282C141.247 92.0336 141.383 92.2313 141.53 92.4202C142.476 93.5998 143.867 94.3509 144.897 95.4554C144.897 95.4996 144.897 95.5438 144.897 95.5835C144.897 95.7073 144.897 95.8265 144.897 95.9502C144.951 98.4136 145.607 100.826 146.807 102.978C148.006 105.131 149.714 106.957 151.78 108.299C151.78 108.467 151.802 108.639 151.811 108.807C151.897 110.118 151.881 111.434 151.762 112.743C151.582 112.532 151.357 112.363 151.103 112.25C150.85 112.136 150.573 112.082 150.296 112.09C150.106 112.08 149.916 112.097 149.73 112.138L149.69 112.107V112.147C148.718 112.386 147.521 113.397 146.377 116.273C146.377 116.273 142.895 120.197 140.244 120.033C137.594 119.87 130.882 124.116 130.882 124.116C130.882 124.116 124.335 128.366 122.93 132.696C122.145 135.151 121.203 137.553 120.111 139.888L112.017 156.566L110.524 169.799C110.524 169.799 111.35 175.684 111.187 176.58C111.023 177.477 114.584 185.567 114.584 185.567C114.584 185.567 126.35 206.239 131.156 207.299L131.501 207.056C131.707 207.164 131.925 207.245 132.15 207.299L133.14 206.601C133.2 207.379 133.174 208.161 133.065 208.934C132.402 210.975 133.312 224.296 134.47 226.907C135.628 229.518 135.217 263.754 135.217 263.754L135.053 266.776C135.053 266.776 135.053 266.873 135.093 267.041L135.053 267.757L135.172 267.818C135.296 268.777 135.256 269.75 135.053 270.695C134.638 272.02 134.47 275.766 134.47 275.766C134.47 275.766 131.161 296.92 132.729 301.171C134.298 305.421 135.632 310.077 135.632 310.077C135.632 310.077 137.289 315.379 135.711 316.285C134.134 317.191 129.65 318.71 130.573 320.919C131.413 322.961 134.598 328.43 135.071 329.23L135.031 329.65L134.382 336.688C134.487 337.617 134.739 338.524 135.128 339.374C135.84 340.907 137.222 342.497 139.851 342.325C140.293 342.294 140.806 342.241 141.3 342.175C146.112 341.53 152.036 339.383 152.036 339.383C151.729 339.187 151.447 338.954 151.197 338.689C150.96 338.46 150.773 338.185 150.646 337.881C150.519 337.577 150.456 337.251 150.459 336.922C150.53 335.64 148.131 329.535 147.534 328.033C147.441 327.816 147.393 327.692 147.393 327.692C147.393 327.692 152.862 321.975 151.952 316.908C151.952 316.908 145.9 313.373 147.892 311.434C149.885 309.494 153.446 303.923 153.446 303.923C153.446 303.923 153.609 283.092 153.446 279.981C153.275 277.823 153.378 275.651 153.751 273.518C153.817 273.195 153.896 272.882 153.98 272.572C156.736 272.984 159.518 273.195 162.304 273.204C163.32 273.204 164.354 273.204 165.397 273.142C165.397 273.437 165.41 273.755 165.436 274.096C165.666 279.257 166.095 288.305 166.444 291.667C166.939 296.487 169.673 309.477 169.673 309.477C169.673 309.477 164.456 312.825 170.583 321.078C170.583 321.078 170.583 324.069 170.177 324.502C169.743 325.918 169.393 327.358 169.13 328.815C168.874 330.37 168.768 331.943 169.183 332.76C170.177 334.713 176.141 334.554 176.141 334.554L176.287 334.527C177.413 334.411 178.551 334.519 179.635 334.846C180.719 335.173 181.727 335.712 182.601 336.431C184.867 338.252 193.469 337.452 198.126 336.873C199.95 336.643 201.17 336.431 201.17 336.431C201.229 336.225 201.25 336.009 201.232 335.795C201.183 334.651 200.286 332.141 194.207 329.901C194.207 329.901 188.49 326.058 188.569 322.709H188.45H187.787C188.269 322.682 188.578 322.709 188.578 322.709C188.578 322.709 186.338 314.535 187.253 313.873C188.167 313.21 185.428 304.153 185.428 304.153C185.428 304.153 183.86 288.954 183.776 287.89C183.779 286.976 183.918 286.068 184.187 285.195L183.776 276.862C183.776 276.862 183.696 274.092 183.776 273.191C183.762 272.408 183.699 271.628 183.586 270.854C183.546 270.544 183.506 270.222 183.462 269.904C185.605 269.36 186.997 268.857 186.997 268.857L186.749 239.852C188.569 236.317 188.905 228.564 188.896 223.063C188.896 219.529 188.737 216.913 188.737 216.913L191.225 212.853C191.225 212.853 191.799 207.993 190.889 206.928C190.487 206.447 190.668 205.947 190.999 205.537C191.172 205.4 191.353 205.276 191.543 205.165C191.543 205.165 191.516 205.126 191.485 205.068C191.659 204.923 191.844 204.792 192.038 204.675C192.038 204.675 191.154 203.305 191.945 202.727C192.687 203.23 193.35 203.61 193.854 203.92C193.818 204.242 193.783 204.428 193.783 204.428L193.995 203.986C194.481 204.26 194.777 204.428 194.777 204.428C194.777 204.428 198.674 196.665 198.59 195.521C198.506 194.376 201.241 189.556 201.241 189.556C201.241 189.556 201.572 187.025 203.065 185.964C204.559 184.904 204.223 177.221 204.223 177.221C204.223 177.221 204.638 173.218 205.632 171.584C206.626 169.949 204.726 167.744 204.726 167.744ZM130.167 164.338L130.242 166.189C129.8 165.478 129.482 164.965 129.482 164.965L130.167 164.338Z"
        fill="url(#paint0_linear_1210_657)" />
    <path
        d="M194.989 201.075L194.035 205.139C194.035 205.139 186.392 201.238 185.013 196.281C183.635 191.324 187.32 189.442 187.32 189.442L194.441 192.459L194.989 201.075Z"
        fill="white" />
    <path opacity="0.1"
        d="M194.989 201.075L194.035 205.139C194.035 205.139 186.392 201.238 185.013 196.281C183.635 191.324 187.32 189.442 187.32 189.442L194.441 192.459L194.989 201.075Z"
        fill="black" />
    <path
        d="M152.094 339.41C152.094 339.41 145.025 342.007 140.165 342.334C137.585 342.507 136.229 340.925 135.531 339.401C135.149 338.553 134.903 337.651 134.802 336.728L135.434 329.725L135.769 325.996L146.094 323.314L147.557 327.786L147.694 328.126C148.281 329.619 150.636 335.694 150.566 336.962C150.563 337.287 150.625 337.609 150.75 337.908C150.874 338.208 151.058 338.48 151.29 338.707C151.527 338.974 151.797 339.211 152.094 339.41Z"
        fill="white" />
    <path
        d="M200.379 335.849C200.397 336.061 200.376 336.275 200.317 336.48C200.317 336.48 185.199 339.003 182.106 336.48C181.234 335.743 180.218 335.197 179.122 334.876C178.027 334.555 176.876 334.466 175.744 334.616C175.744 334.616 169.895 334.775 168.918 332.849C168.512 332.04 168.618 330.472 168.87 328.925C169.126 327.477 169.469 326.044 169.895 324.635L170.129 324.45L171.52 323.332L187.814 322.851H187.938C187.858 326.182 193.469 330.003 193.469 330.003C199.429 332.213 200.309 334.709 200.379 335.849Z"
        fill="white" />
    <path opacity="0.1"
        d="M200.379 335.848C200.395 336.061 200.372 336.275 200.313 336.48C200.313 336.48 185.199 339.003 182.106 336.48C181.235 335.744 180.219 335.198 179.124 334.877C178.03 334.555 176.88 334.467 175.749 334.616C175.749 334.616 169.895 334.775 168.923 332.849C168.516 332.036 168.618 330.472 168.87 328.925C171.123 329.151 174.679 329.712 176.076 331.05C178.187 333.087 181.766 335.119 183.962 335.279C185.68 335.389 195.961 335.716 200.379 335.848Z"
        fill="black" />
    <path opacity="0.1"
        d="M152.094 339.409C152.094 339.409 145.025 342.007 140.165 342.334C137.585 342.506 136.229 340.925 135.535 339.396C137.333 340.001 139.83 340.638 141.142 340.054C142.697 339.365 148.211 338.919 151.303 338.729C151.539 338.987 151.804 339.215 152.094 339.409Z"
        fill="black" />
    <path
        d="M162.582 130.058C156.751 127.792 149.249 120.303 151.122 116.804C151.538 115.921 151.785 114.968 151.851 113.994C151.971 112.672 151.989 111.343 151.904 110.018C151.773 107.848 151.511 105.688 151.122 103.55C151.122 103.55 169.329 103.961 168.269 106.642C167.959 107.429 167.911 108.794 167.995 110.323C168.079 111.851 168.299 113.579 168.529 115.041C168.847 117.047 169.165 118.576 169.165 118.576C169.165 118.576 168.052 120.135 167.398 120.219C166.744 120.303 170.95 133.288 162.582 130.058Z"
        fill="#CF6F80" />
    <path opacity="0.1"
        d="M147.681 328.126L147.544 328.276C142.101 321.693 135.518 329.897 135.518 329.897L135.42 329.725L135.756 325.996L146.081 323.314L147.544 327.786L147.681 328.126Z"
        fill="black" />
    <path opacity="0.1"
        d="M187.943 323.314C187.943 323.314 183.966 323.23 181.846 325.103C179.725 326.977 169.475 325.51 169.917 325.103C170.048 324.902 170.127 324.671 170.146 324.432L171.538 323.314L187.832 322.833C187.894 323.129 187.943 323.314 187.943 323.314Z"
        fill="black" />
    <path
        d="M154.453 271.618C154.157 272.35 153.932 273.109 153.782 273.885C153.413 276.008 153.311 278.169 153.477 280.318C153.64 283.41 153.477 304.135 153.477 304.135C153.477 304.135 149.982 309.662 148.034 311.611C146.086 313.559 152.01 317.058 152.01 317.058C152.894 322.095 147.539 327.785 147.539 327.785C142.096 321.203 135.513 329.411 135.513 329.411C135.513 329.411 131.934 323.226 131.042 321.017C130.149 318.808 134.537 317.279 136.079 316.382C137.62 315.486 136.003 310.197 136.003 310.197C136.003 310.197 134.7 305.562 133.154 301.334C131.607 297.106 134.859 276.059 134.859 276.059C134.859 276.059 135.027 272.321 135.429 271.017C135.632 270.077 135.672 269.109 135.548 268.155C135.522 267.832 135.491 267.563 135.469 267.381C135.447 267.2 135.429 267.116 135.429 267.116L135.491 267.01L137.7 262.893C137.7 262.893 155.514 269.025 154.453 271.618Z"
        fill="#003193" />
    <path
        d="M187.942 322.828C187.942 322.828 183.966 322.744 181.845 324.596C179.725 326.447 169.475 325.002 169.917 324.596C170.358 324.189 170.323 321.18 170.323 321.18C164.31 312.972 169.44 309.64 169.44 309.64C169.44 309.64 166.753 296.717 166.267 291.924C165.927 288.575 165.507 279.575 165.282 274.437C165.185 272.228 165.127 270.708 165.127 270.708L170.04 269.718L170.672 269.59L182.521 267.213C182.521 267.213 182.848 269.422 183.069 271.229C183.179 272.001 183.241 272.779 183.255 273.558C183.175 274.441 183.255 277.207 183.255 277.207L183.657 285.5C183.394 286.37 183.259 287.273 183.255 288.182C183.334 289.238 184.876 304.356 184.876 304.356C184.876 304.356 187.558 313.378 186.644 314.027C185.729 314.677 187.942 322.828 187.942 322.828Z"
        fill="#003193" />
    <path opacity="0.1"
        d="M168.269 106.642C167.959 107.429 167.911 108.794 167.995 110.323C165.556 111.791 162.752 112.542 159.906 112.489C157.06 112.436 154.286 111.581 151.904 110.022C151.773 107.851 151.512 105.69 151.122 103.55C151.122 103.55 169.329 103.952 168.269 106.642Z"
        fill="black" />
    <path
        d="M175.306 96.8781C175.31 98.4702 175.059 100.053 174.564 101.566C173.457 104.956 171.188 107.846 168.156 109.724C165.125 111.603 161.527 112.35 157.998 111.832C154.469 111.314 151.237 109.566 148.873 106.896C146.509 104.226 145.164 100.806 145.078 97.2404C145.078 97.1167 145.078 97.0018 145.078 96.8781C145.044 94.8712 145.409 92.8776 146.154 91.0136C146.898 89.1495 148.006 87.4523 149.413 86.0209C150.82 84.5895 152.498 83.4527 154.349 82.6767C156.2 81.9006 158.187 81.501 160.194 81.501C162.202 81.501 164.189 81.9006 166.04 82.6767C167.891 83.4527 169.569 84.5895 170.976 86.0209C172.383 87.4523 173.491 89.1495 174.235 91.0136C174.98 92.8776 175.345 94.8712 175.311 96.8781H175.306Z"
        fill="#CF6F80" />
    <path opacity="0.1"
        d="M162.582 130.058C156.751 127.792 149.249 120.303 151.122 116.804C151.538 115.921 151.785 114.968 151.851 113.994L159.834 120.555L164.774 124.606L168.529 115.046C168.847 117.051 169.165 118.58 169.165 118.58C169.165 118.58 168.052 120.14 167.398 120.224C166.744 120.308 170.95 133.288 162.582 130.058Z"
        fill="black" />
    <path
        d="M183.228 159.054L176.561 271.053L167.867 271.623L145.352 206.681L149.046 129.581L149.823 113.292L159.835 121.514L164.778 125.565L168.644 115.726L175.832 121.991L183.228 159.054Z"
        fill="#003193" />
    <path opacity="0.1"
        d="M154.453 271.618C154.157 272.35 153.932 273.109 153.781 273.885C147.455 272.908 141.31 270.988 135.552 268.19L135.433 268.128L135.473 267.417L135.495 267.045L137.704 262.928C137.704 262.928 155.513 269.025 154.453 271.618Z"
        fill="black" />
    <path opacity="0.1"
        d="M170.142 273.902C168.524 274.177 166.893 274.363 165.255 274.459C165.158 272.25 165.101 270.73 165.101 270.73L170.013 269.74L170.142 273.902Z"
        fill="black" />
    <path opacity="0.1"
        d="M183.043 271.251C179.901 272.069 175.05 272.988 170.707 272.413L170.646 269.612L182.495 267.235C182.495 267.235 182.822 269.422 183.043 271.251Z"
        fill="black" />
    <path opacity="0.1"
        d="M170.628 272.926C152.514 276.019 135.924 267.151 135.924 267.151L136.083 264.147C136.083 264.147 136.494 230.088 135.354 227.477C134.214 224.866 133.326 211.625 133.971 209.593C134.616 207.56 131.616 177.084 131.616 177.084L131.13 164.714L113.343 157.508L121.295 140.931C122.369 138.607 123.293 136.216 124.061 133.774C125.444 129.47 131.863 125.242 131.863 125.242C131.863 125.242 138.446 121.019 141.049 121.178C143.651 121.337 147.062 117.44 147.062 117.44C149.58 111.021 151.86 113.928 151.86 113.928C151.86 114.232 151.86 113.928 151.736 114.878C150.852 121.924 166.024 144.192 166.241 144.585L167.685 179.779L169.148 224.318L170.628 272.926Z"
        fill="black" />
    <path
        d="M170.142 272.926C152.028 276.019 135.433 267.152 135.433 267.152L135.597 264.147C135.597 264.147 136.008 230.088 134.864 227.477C133.719 224.866 132.836 211.625 133.485 209.593C134.135 207.56 131.13 177.084 131.13 177.084L130.64 164.714L112.844 157.481L120.796 140.905C121.868 138.58 122.792 136.189 123.562 133.747C124.94 129.444 131.364 125.216 131.364 125.216C131.364 125.216 137.947 120.992 140.545 121.151C143.143 121.31 146.558 117.414 146.558 117.414C149.081 110.994 151.86 113.901 151.86 113.901C151.86 114.206 151.595 114.343 151.736 114.851C153.68 121.686 165.538 144.165 165.755 144.558L167.217 179.753L168.68 224.292L170.142 272.926Z"
        fill="white" />
    <path opacity="0.1"
        d="M165.26 145.561C163.312 144.748 152.991 132.965 152.991 132.965V130.284C152.616 129.4 150.385 129.939 148.573 130.558L149.351 114.268L150.234 115.001C152.17 121.832 165.035 145.168 165.26 145.561Z"
        fill="black" />
    <path
        d="M165.75 144.585C163.797 143.772 153.477 131.989 153.477 131.989V129.307C153.101 128.423 150.87 128.962 149.059 129.581L149.841 113.292L150.724 114.025C152.664 120.855 165.534 144.196 165.75 144.585Z"
        fill="white" />
    <path opacity="0.1"
        d="M135.924 203.35C136.167 203.35 148.52 202.051 148.52 202.051C148.52 202.051 156 216.759 155.509 220.337C155.019 223.916 154.131 227.084 151.122 226.523C148.113 225.961 134.93 226.964 134.93 226.964L135.924 203.35Z"
        fill="black" />
    <path
        d="M135.433 202.373C135.676 202.373 148.029 201.074 148.029 201.074C148.029 201.074 155.504 215.786 155.018 219.361C154.532 222.935 153.636 226.107 150.631 225.546C147.627 224.985 134.439 225.988 134.439 225.988L135.433 202.373Z"
        fill="white" />
    <path
        d="M144.743 195.468C144.743 195.468 156.079 201.56 156.322 203.42C156.565 205.28 150.552 202.607 149.253 202.285C148.399 202.079 147.528 201.943 146.651 201.878L137.987 202.113L144.743 195.468Z"
        fill="#CF6F80" />
    <path opacity="0.1"
        d="M162.097 146.321C162.755 146.321 163.29 145.787 163.29 145.128C163.29 144.469 162.755 143.935 162.097 143.935C161.438 143.935 160.904 144.469 160.904 145.128C160.904 145.787 161.438 146.321 162.097 146.321Z"
        fill="black" />
    <path
        d="M162.097 145.835C162.755 145.835 163.29 145.301 163.29 144.642C163.29 143.983 162.755 143.449 162.097 143.449C161.438 143.449 160.904 143.983 160.904 144.642C160.904 145.301 161.438 145.835 162.097 145.835Z"
        fill="#3F3D56" />
    <path opacity="0.1"
        d="M164.292 197.959C164.951 197.959 165.485 197.425 165.485 196.767C165.485 196.108 164.951 195.574 164.292 195.574C163.634 195.574 163.1 196.108 163.1 196.767C163.1 197.425 163.634 197.959 164.292 197.959Z"
        fill="black" />
    <path
        d="M164.292 197.469C164.951 197.469 165.485 196.935 165.485 196.276C165.485 195.618 164.951 195.083 164.292 195.083C163.634 195.083 163.1 195.618 163.1 196.276C163.1 196.935 163.634 197.469 164.292 197.469Z"
        fill="#3F3D56" />
    <path opacity="0.1"
        d="M163.285 172.141C163.943 172.141 164.478 171.607 164.478 170.948C164.478 170.289 163.943 169.755 163.285 169.755C162.626 169.755 162.092 170.289 162.092 170.948C162.092 171.607 162.626 172.141 163.285 172.141Z"
        fill="black" />
    <path
        d="M163.285 171.654C163.943 171.654 164.478 171.12 164.478 170.461C164.478 169.803 163.943 169.269 163.285 169.269C162.626 169.269 162.092 169.803 162.092 170.461C162.092 171.12 162.626 171.654 163.285 171.654Z"
        fill="#3F3D56" />
    <path
        d="M190.783 201.631C190.783 201.631 191.596 202.851 190.783 203.421C189.97 203.99 190.863 205.369 190.863 205.369C190.863 205.369 188.835 206.557 189.727 207.627C190.62 208.696 190.054 213.525 190.054 213.525L187.615 217.563C187.615 217.563 187.761 220.165 187.77 223.682C187.77 229.169 187.448 236.883 185.663 240.4L185.91 269.254C185.91 269.254 177.37 272.374 170.221 271.424L169.161 225.122C169.161 225.122 170.707 198.865 171.277 193.829C171.611 191.214 171.747 188.578 171.684 185.943C171.684 185.943 171.441 178.061 170.623 174.403C170.623 174.403 169.74 158.555 169.652 154.168C169.612 152.069 169.722 145.946 169.846 140.123C169.983 133.756 170.138 127.752 170.138 127.752L168.525 114.992C168.525 114.992 170.138 114.829 170.623 115.478C170.841 115.682 171.078 115.864 171.33 116.022C174.114 117.904 183.948 123.692 183.948 123.692C183.948 123.692 189.392 125.857 190.695 128.958C191.998 132.06 192.904 134.26 193.536 135.143C194.168 136.027 194.512 140.18 194.512 140.18C194.512 140.18 196.385 147.823 197.848 149.118C199.31 150.412 200.379 158.648 200.379 158.648L187.456 168.809C187.456 168.809 186.321 185.713 186.078 186.367C185.835 187.021 190.783 201.631 190.783 201.631Z"
        fill="white" />
    <path
        d="M191.274 201.631C191.274 201.631 192.082 202.851 191.274 203.421C190.465 203.991 191.349 205.369 191.349 205.369C191.349 205.369 189.334 206.571 190.218 207.64C191.102 208.709 190.545 213.538 190.545 213.538L188.106 217.576C188.106 217.576 188.252 220.178 188.265 223.695C188.265 229.182 187.943 236.896 186.158 240.413L186.401 269.268C186.401 269.268 177.847 272.387 170.708 271.437L169.652 225.136C169.652 225.136 171.198 198.879 171.768 193.842C172.102 191.227 172.236 188.591 172.17 185.956C172.17 185.956 171.927 178.074 171.114 174.416C171.114 174.416 170.23 158.568 170.138 154.181C170.098 152.082 170.213 145.959 170.332 140.136C170.469 133.769 170.624 127.765 170.624 127.765L168.494 114.833C168.494 114.833 170.624 114.833 171.114 115.492C171.33 115.698 171.567 115.88 171.821 116.035C174.604 117.917 184.443 123.705 184.443 123.705C184.443 123.705 189.882 125.87 191.185 128.971C192.489 132.073 193.395 134.273 194.031 135.157C194.667 136.04 195.003 140.193 195.003 140.193C195.003 140.193 196.876 147.837 198.338 149.131C199.801 150.426 200.857 158.643 200.857 158.643L187.934 168.805C187.934 168.805 186.798 185.708 186.551 186.362C186.303 187.016 191.274 201.631 191.274 201.631Z"
        fill="white" />
    <path opacity="0.1"
        d="M175.797 131.516L176.963 134.918L170.822 141.103C170.959 134.741 171.114 128.733 171.114 128.733L168.984 115.801C168.984 115.801 171.114 115.801 171.604 116.459C171.819 116.664 172.056 116.845 172.311 116.998L177.533 132.064L175.797 131.516Z"
        fill="black" />
    <path
        d="M175.307 130.54L176.478 133.942L170.336 140.127C170.473 133.761 170.628 127.756 170.628 127.756L168.494 114.825C168.494 114.825 170.628 114.825 171.114 115.483C171.331 115.688 171.568 115.87 171.821 116.026L177.048 131.088L175.307 130.54Z"
        fill="white" />
    <path opacity="0.1"
        d="M175.306 96.8781C175.31 98.4702 175.059 100.053 174.564 101.566C174.481 101.579 174.396 101.575 174.314 101.554C174.232 101.534 174.155 101.497 174.087 101.446C173.972 97.4701 172.015 93.7369 169.607 90.5603C168.931 89.6011 168.112 88.7518 167.177 88.0419C166.233 87.3325 165.058 87.0001 163.881 87.1097C162.556 87.2909 161.385 88.1922 160.046 88.307C158.279 88.4528 156.697 87.229 154.943 87.1672C154.23 87.1739 153.527 87.3327 152.88 87.6329C152.233 87.933 151.658 88.3677 151.193 88.9079C150.271 89.998 149.586 91.2678 149.182 92.6367C148.488 94.7126 148.109 96.8811 148.06 99.0695C148.038 100.307 147.919 101.857 146.77 102.308C146.857 101.398 146.753 100.48 146.466 99.6126C146.18 98.7448 145.716 97.9461 145.104 97.2669L145.078 97.2404C145.078 97.1167 145.078 97.0018 145.078 96.8781C145.044 94.8712 145.409 92.8776 146.154 91.0136C146.898 89.1495 148.006 87.4523 149.413 86.0209C150.82 84.5895 152.498 83.4527 154.349 82.6767C156.2 81.9006 158.187 81.501 160.194 81.501C162.202 81.501 164.189 81.9006 166.04 82.6767C167.891 83.4527 169.569 84.5895 170.976 86.0209C172.383 87.4523 173.491 89.1495 174.235 91.0136C174.98 92.8776 175.345 94.8712 175.311 96.8781H175.306Z"
        fill="black" />
    <path
        d="M166.453 72.8748C164.157 71.7949 161.546 71.5906 159.11 72.3005C157.887 72.6627 156.733 73.2503 155.492 73.5464C152.841 74.187 149.748 73.4933 147.473 75.0441C146.21 75.9277 145.45 77.3238 144.743 78.6802L142.975 82.0468C142.012 83.8891 141.04 85.7624 140.638 87.7903C140.236 89.8182 140.479 92.0891 141.765 93.7194C142.702 94.9078 144.084 95.6545 145.101 96.7723C145.709 97.4522 146.171 98.2505 146.457 99.1171C146.743 99.9838 146.847 100.9 146.762 101.809C147.915 101.367 148.025 99.8119 148.052 98.5748C148.101 96.3864 148.479 94.2179 149.174 92.1421C149.577 90.7728 150.262 89.5027 151.184 88.4132C151.65 87.8735 152.226 87.4391 152.872 87.139C153.519 86.8389 154.222 86.6798 154.935 86.6725C156.702 86.7344 158.289 87.9538 160.038 87.808C161.364 87.6975 162.539 86.7918 163.873 86.6151C165.049 86.5038 166.225 86.8363 167.169 87.5473C168.103 88.256 168.921 89.1056 169.594 90.0656C172.007 93.2422 173.964 96.9667 174.079 100.952C174.578 101.318 175.298 100.841 175.546 100.276C175.793 99.7103 175.802 99.0476 176.116 98.5086C176.478 97.8856 177.171 97.5543 177.715 97.0859C179.093 95.8975 179.438 93.8961 179.385 92.0803C179.332 90.2644 178.978 88.4221 179.323 86.6372C179.531 85.5415 179.999 84.5165 180.255 83.434C180.512 82.3516 180.542 81.1366 179.937 80.2044C179.054 78.8348 177.194 78.5653 175.572 78.4372C173.73 78.2781 172.082 78.4814 170.907 76.9306C170.355 76.1214 169.734 75.3616 169.051 74.6597C168.817 74.43 166.453 72.972 166.453 72.8748Z"
        fill="#512E4E" />
    <path opacity="0.1"
        d="M118.432 166.044L113.815 157.508L112.353 170.678C112.353 170.678 113.166 176.528 113.002 177.425C112.839 178.321 116.334 186.362 116.334 186.362C116.334 186.362 127.878 206.924 132.592 207.984L148.52 196.603L144.296 191.24C144.296 191.24 142.833 190.67 142.467 191.24C142.467 191.24 134.625 177.747 133.812 176.771C132.999 175.794 133.158 173.846 133.158 173.846C133.158 173.846 131.938 172.547 132.345 171.328C132.751 170.108 129.99 165.88 129.99 165.88L132.508 163.525L118.432 166.044Z"
        fill="black" />
    <path
        d="M114.058 156.536L112.839 157.508L111.376 170.678C111.376 170.678 112.189 176.528 112.026 177.424C111.862 178.321 115.362 186.362 115.362 186.362C115.362 186.362 126.902 206.924 131.616 207.984L147.547 196.603L143.319 191.24C143.319 191.24 141.857 190.67 141.49 191.24C141.49 191.24 133.648 177.747 132.835 176.771C132.022 175.794 132.186 173.846 132.186 173.846C132.186 173.846 130.966 172.547 131.373 171.327C131.779 170.108 129.013 165.88 129.013 165.88L131.532 163.525L114.058 156.536Z"
        fill="white" />
    <path opacity="0.1"
        d="M189.727 208.13C190.611 209.204 190.054 214.024 190.054 214.024L187.615 218.062C187.615 218.062 187.761 220.669 187.77 224.181L183.67 225.463C183.299 225.578 182.907 225.604 182.524 225.537C182.142 225.47 181.781 225.312 181.472 225.078C181.163 224.843 180.914 224.537 180.747 224.187C180.58 223.837 180.499 223.451 180.511 223.063L181.218 200.262L190.783 203.92C189.97 204.485 190.863 205.873 190.863 205.873C190.863 205.873 188.835 207.057 189.727 208.13Z"
        fill="black" />
    <path
        d="M190.218 207.64C191.101 208.713 190.545 213.538 190.545 213.538L188.106 217.576C188.106 217.576 188.252 220.178 188.265 223.695L184.09 224.998C183.727 225.111 183.342 225.135 182.968 225.07C182.594 225.004 182.241 224.849 181.938 224.619C181.636 224.39 181.392 224.091 181.229 223.748C181.065 223.405 180.986 223.028 180.997 222.648L181.708 199.775L191.278 203.434C190.461 203.999 191.353 205.382 191.353 205.382C191.353 205.382 189.334 206.57 190.218 207.64Z"
        fill="white" />
    <path
        d="M193.386 196.771C193.386 196.771 192.736 200.92 191.11 201.163C189.484 201.406 188.755 207.874 187.134 207.644C185.512 207.415 186.586 201.631 186.644 200.509C186.701 199.387 184.876 194.739 186.241 193.683C187.607 192.627 191.928 193.683 191.928 193.683L193.386 196.771Z"
        fill="#CF6F80" />
    <path opacity="0.1"
        d="M196.845 164.824L199.911 158.639C199.911 158.639 201.13 163.353 201.13 165.871C201.13 168.389 202.835 168.637 202.835 168.637C202.835 168.637 204.704 170.846 203.719 172.454C202.734 174.062 202.336 178.065 202.336 178.065C202.336 178.065 202.659 185.704 201.196 186.76C199.734 187.816 199.429 190.338 199.429 190.338C199.429 190.338 196.743 195.132 196.827 196.272C196.911 197.412 193.089 205.13 193.089 205.13C193.089 205.13 194.958 195.539 184.067 191.394C184.067 191.394 183.983 188.138 184.796 187.246C185.609 186.353 186.877 185.947 186.082 181.436C185.287 176.925 185.852 171.535 185.852 170.453C185.852 169.37 188.291 162.619 188.291 162.619L196.845 164.824Z"
        fill="black" />
    <path
        d="M198.171 157.755L200.848 158.639C200.848 158.639 202.072 163.353 202.072 165.871C202.072 168.39 203.777 168.637 203.777 168.637C203.777 168.637 205.646 170.846 204.661 172.454C203.675 174.063 203.282 178.065 203.282 178.065C203.282 178.065 203.605 185.704 202.142 186.76C200.68 187.816 200.353 190.339 200.353 190.339C200.353 190.339 197.671 195.132 197.755 196.272C197.839 197.412 194.013 205.131 194.013 205.131C194.013 205.131 195.886 195.539 184.991 191.395C184.991 191.395 184.912 188.139 185.725 187.246C186.538 186.354 187.806 185.947 187.01 181.436C186.215 176.925 186.781 171.535 186.781 170.453C186.781 169.371 189.219 162.62 189.219 162.62L198.171 157.755Z"
        fill="white" />
    <path opacity="0.1"
        d="M139.034 318.074C139.034 318.074 143.302 315.393 146.103 317.341C148.904 319.289 139.034 318.074 139.034 318.074Z"
        fill="black" />
    <path opacity="0.1"
        d="M172.196 309.782C172.196 309.782 175.974 309.296 179.146 312.711C182.318 316.126 172.196 309.782 172.196 309.782Z"
        fill="black" />
    <g opacity="0.1">
        <path
            d="M177.723 96.1183C177.18 96.5866 176.482 96.9224 176.119 97.5454C175.81 98.08 175.801 98.7383 175.554 99.3126C175.306 99.887 174.586 100.355 174.087 99.993C173.972 96.0167 172.011 92.2834 169.603 89.1024C168.929 88.1424 168.111 87.2928 167.177 86.5841C166.232 85.8732 165.055 85.5407 163.877 85.6519C162.551 85.833 161.385 86.7343 160.046 86.8448C158.279 86.995 156.693 85.7712 154.939 85.7093C154.226 85.7164 153.523 85.8758 152.877 86.1768C152.231 86.4777 151.657 86.9134 151.192 87.4545C150.27 88.5423 149.585 89.8109 149.182 91.1789C148.488 93.2548 148.11 95.4233 148.06 97.6116C148.034 98.8443 147.919 100.382 146.779 100.841C146.805 101.168 146.805 101.496 146.779 101.822C147.928 101.38 148.042 99.8251 148.069 98.588C148.118 96.3996 148.496 94.2311 149.191 92.1553C149.594 90.786 150.279 89.5159 151.201 88.4264C151.666 87.8868 152.241 87.4525 152.887 87.1523C153.533 86.8522 154.236 86.6931 154.948 86.6857C156.715 86.7476 158.306 87.967 160.055 87.8212C161.381 87.7107 162.556 86.805 163.886 86.6283C165.063 86.5171 166.24 86.8496 167.186 87.5605C168.12 88.2692 168.938 89.1188 169.611 90.0788C172.019 93.2554 173.981 96.9799 174.096 100.965C174.595 101.332 175.315 100.855 175.563 100.289C175.81 99.7235 175.819 99.0608 176.128 98.5218C176.49 97.8988 177.189 97.5675 177.732 97.0991C179.11 95.9107 179.455 93.9093 179.402 92.0935C179.402 92.036 179.402 91.9786 179.402 91.9256C179.318 93.4984 178.898 95.1022 177.723 96.1183Z"
            fill="black" />
        <path
            d="M145.109 95.8051C144.093 94.6873 142.706 93.9406 141.774 92.7566C140.989 91.7084 140.54 90.4467 140.488 89.1382C140.349 90.7733 140.805 92.4036 141.774 93.7286C142.706 94.917 144.093 95.6637 145.109 96.7815C146.085 97.8748 146.671 99.2608 146.775 100.722C146.842 99.8329 146.73 98.9388 146.444 98.0939C146.157 97.2489 145.703 96.4704 145.109 95.8051Z"
            fill="black" />
        <path
            d="M180.263 82.4666C180.003 83.549 179.539 84.5784 179.327 85.6697C179.201 86.3989 179.155 87.1396 179.19 87.8787C179.205 87.4577 179.25 87.0383 179.327 86.624C179.539 85.5283 180.003 84.5033 180.263 83.4209C180.415 82.8239 180.465 82.2053 180.409 81.5918C180.382 81.8865 180.333 82.1789 180.263 82.4666Z"
            fill="black" />
    </g>
    <path opacity="0.1"
        d="M59.4288 336.038C83.2046 336.038 102.479 332.942 102.479 329.124C102.479 325.305 83.2046 322.209 59.4288 322.209C35.653 322.209 16.3789 325.305 16.3789 329.124C16.3789 332.942 35.653 336.038 59.4288 336.038Z"
        fill="#003193" />
    <path d="M60.816 196.67H58.0459V259.04H60.816V196.67Z" fill="#535461" />
    <path
        d="M78.2234 258.85L78.051 261.66L77.8036 265.636L77.702 267.288L77.459 271.265L77.353 272.917L77.1056 276.893L74.3133 321.989C74.192 323.929 73.3358 325.75 71.9192 327.081C70.5025 328.413 68.6318 329.154 66.6877 329.155H52.1699C50.2263 329.154 48.3561 328.412 46.9401 327.081C45.5242 325.75 44.669 323.929 44.5487 321.989L41.7697 276.862L41.5223 272.886L41.4207 271.234L41.1733 267.257L41.0716 265.605L40.8242 261.629L40.6475 258.819C40.6168 258.278 40.6969 257.737 40.883 257.228C41.069 256.719 41.357 256.254 41.7294 255.86C42.1017 255.467 42.5505 255.154 43.0482 254.94C43.5459 254.726 44.0821 254.616 44.6238 254.617H74.3178C74.8574 254.622 75.3904 254.737 75.8838 254.956C76.3772 255.174 76.8205 255.492 77.1865 255.888C77.5525 256.285 77.8333 256.752 78.0116 257.262C78.1899 257.771 78.262 258.311 78.2234 258.85Z"
        fill="#3F3D56" />
    <path d="M78.0511 261.66L77.8037 265.623H41.0541L40.8066 261.66H78.0511Z" fill="#9D9CB5" />
    <path d="M77.7022 267.275L77.4592 271.243H41.4032L41.1558 267.275H77.7022Z" fill="#9D9CB5" />
    <path d="M77.3533 272.899L77.1103 276.862H41.7523L41.5049 272.899H77.3533Z" fill="#9D9CB5" />
    <path
        d="M36.5788 220.046C52.7093 231.718 59.4424 249.974 59.4424 249.974C59.4424 249.974 40.0028 249.307 23.868 237.634C7.7331 225.962 1.01318 207.71 1.01318 207.71C1.01318 207.71 20.4439 208.373 36.5788 220.046Z"
        fill="#003193" />
    <path d="M1 207.71C1 207.71 21.1818 218.91 27.6543 228.184C34.1268 237.457 59.4425 249.974 59.4425 249.974"
        stroke="#535461" stroke-width="2" stroke-miterlimit="10" />
    <path
        d="M46.9919 196.532C55.7707 202.881 59.4421 212.817 59.4421 212.817C59.4421 212.817 48.8608 212.455 40.0776 206.106C31.2944 199.758 27.6318 189.817 27.6318 189.817C27.6318 189.817 38.2087 190.179 46.9919 196.532Z"
        fill="#003193" />
    <path
        d="M27.6318 189.817C27.6318 189.817 38.6152 195.914 42.1364 200.959C45.6576 206.005 59.4421 212.817 59.4421 212.817"
        stroke="#535461" stroke-width="2" stroke-miterlimit="10" />
    <path
        d="M72.1887 212.314C62.1022 223.399 59.9683 237.886 59.9683 237.886C59.9683 237.886 74.1901 234.396 84.2678 223.306C94.3454 212.217 96.4882 197.734 96.4882 197.734C96.4882 197.734 82.2752 201.229 72.1887 212.314Z"
        fill="#003193" />
    <path
        d="M96.497 197.739C96.497 197.739 83.3576 209.102 80.0176 216.931C76.6775 224.76 59.9683 237.886 59.9683 237.886"
        stroke="#535461" stroke-width="2" stroke-miterlimit="10" />
    <path
        d="M442.452 208.413C442.452 208.413 435.157 172.123 437.95 167.608C437.95 167.608 438.051 163.41 437.883 158.06C437.883 157.857 437.883 157.654 437.883 157.446C438.375 157.773 438.887 158.069 439.416 158.33C441.989 159.651 444.943 160.033 447.767 159.408L445.558 156.947C445.027 156.359 444.475 155.723 444.36 154.945C444.245 154.168 444.563 153.474 444.837 152.78C446.936 147.479 447.046 140.812 443.004 136.765C439.589 133.363 438.758 128.971 435.051 125.865C432.343 123.59 430.854 120.254 429.449 117.029C428.261 114.303 427.063 111.555 426.383 108.666C425.853 106.408 425.641 104.071 424.912 101.866C424.183 99.6618 422.818 97.519 420.684 96.5338C419.924 96.1847 419.08 95.9859 418.386 95.522C417.476 94.9079 416.928 93.9094 416.27 93.0346C412.926 88.6166 401.726 91.2188 396.424 93.0125C394.983 93.4643 393.648 94.2038 392.501 95.1862L392.549 95.1067C392.589 95.0405 392.638 94.9742 392.682 94.9079C392.102 95.3772 391.6 95.9365 391.197 96.5647C390.424 97.7885 390.102 99.2155 389.457 100.541C388.679 102.109 384.354 106.488 386.214 108.251C386.344 108.369 386.493 108.465 386.656 108.533C387.354 108.824 388.123 108.901 388.865 108.754L388.785 108.944C388.15 110.499 387.824 112.164 387.826 113.844C387.826 121.103 393.813 126.988 401.204 126.988C402.594 126.989 403.975 126.776 405.3 126.356C405.331 126.524 405.357 126.692 405.388 126.86C405.388 126.926 405.41 126.992 405.419 127.058L405.185 127.385C405.173 127.365 405.16 127.346 405.145 127.328L398.209 137.021C397.149 137.768 391.043 142.186 390.698 145.499C390.336 149.127 389.974 153.372 389.974 153.372L389.925 154.283C389.622 154.536 389.267 154.72 388.886 154.823C388.505 154.926 388.105 154.945 387.716 154.879C385.551 154.526 385.551 162.832 385.551 162.832C385.551 162.832 384.111 164.157 383.121 163.008C382.131 161.86 379.516 165.752 379.516 165.752L363.125 166.459L362.749 166.481L361.866 163.746C361.771 163.458 361.565 163.218 361.295 163.08C361.024 162.942 360.71 162.916 360.421 163.008C360.352 163.031 360.286 163.059 360.222 163.092L360.16 163.128L360.045 163.207L359.988 163.26C359.956 163.289 359.927 163.32 359.9 163.353L359.847 163.415L359.82 163.441C359.718 163.582 359.651 163.745 359.623 163.917C359.595 164.089 359.608 164.265 359.661 164.431L360.421 166.777C357.258 167.413 354.024 169.207 356.661 174.146L343.292 171.677L347.617 175.308L369.946 179.916C369.65 180.447 369.845 181.215 370.768 182.298C374.744 186.968 381.99 188.236 384.906 188.563C385.676 190.285 386.638 191.915 387.773 193.422L387.522 198.075C387.522 198.075 380.139 233.534 378.787 235.333C379.469 234.559 380.094 233.737 380.656 232.872C378.513 240.157 375.518 250.129 374.731 251.622C373.468 254.008 372.297 263.661 373.737 264.28C374.179 264.47 375.442 264.377 377.245 264.24V265.04L377.166 295.343C377.166 295.343 377.528 313.93 376.534 315.702C375.54 317.474 375.275 321.189 375.275 321.189C375.275 321.189 371.298 328.519 368.148 331.466C368.127 331.489 368.103 331.509 368.077 331.528L367.98 330.838C367.98 330.838 364.194 335.619 355.817 335.349C355.817 335.349 350.776 338.627 358.252 338.804C365.727 338.981 375.275 338.539 375.275 338.539C375.275 338.539 381.941 328.377 387.526 329.703V337.404H389.236V329.579C390.029 329.057 390.707 328.38 391.231 327.587C391.754 326.795 392.111 325.905 392.28 324.971C392.426 324.008 392.319 323.024 391.969 322.115C391.619 321.206 391.037 320.404 390.283 319.789C389.944 319.482 389.672 319.109 389.484 318.692C389.296 318.276 389.197 317.825 389.192 317.368L389.13 317.421C389.13 317.266 389.09 317.107 389.072 316.943C388.582 312.967 387.968 304.763 390.137 298.692C393.11 290.369 394.012 278.776 391.847 271.875C391.148 269.669 390.575 267.425 390.128 265.155C390.075 264.867 390.027 264.593 389.982 264.337C391.462 264.537 392.928 264.833 394.37 265.221C399.384 266.604 410.354 266.86 419.721 266.785C419.743 267.041 419.769 267.311 419.8 267.58C419.967 269.453 420.316 271.306 420.843 273.112C422.018 276.646 422.557 292.229 422.557 292.229C422.557 292.229 424.072 305.041 423.246 310.254C422.804 313.153 422.363 316.064 422.111 318.989V319.046C422.111 319.046 419.628 326.115 417.812 329.955C417.768 330.052 417.719 330.149 417.675 330.242C417.191 330.286 416.714 330.391 416.257 330.556C416.257 330.556 413.822 335.415 411.397 336.22C408.971 337.024 409.775 339.67 415.267 338.698C420.759 337.726 429.052 336.931 429.052 336.931L429.409 331.974L431.097 329.862L430.655 334.806L432.453 334.452L432.215 328.439L434.976 324.984C434.976 324.984 438.312 322.015 433.355 316.175V316.303C433.302 316.219 433.253 316.131 433.196 316.047V316.02C432.374 314.748 431.72 312.375 432.917 308.165C435.082 300.557 436.341 293.651 436.341 293.651C436.341 293.651 441.175 275.153 435.365 266.4H435.621C435.026 265.169 434.605 263.86 434.371 262.513C434.341 262.354 434.315 262.19 434.291 262.022C438.59 261.775 442.809 260.997 446.251 259.318C446.238 259.301 444.166 215.402 442.452 208.413ZM387.875 177.796V177.884L386.991 177.928L387.875 177.796ZM384.844 178.215C384.699 178.248 384.563 178.313 384.447 178.405C384.067 178.943 383.828 179.567 383.753 180.221L382.374 179.912C382.374 179.912 381.407 179.704 380.015 179.47L379.357 178.807C381.168 178.657 383.05 178.436 384.844 178.215Z"
        fill="url(#paint1_linear_1210_657)" />
    <path d="M430.452 328.501L429.926 334.761L431.689 334.408L431.424 327.617L430.452 328.501Z" fill="#1D2366" />
    <path
        d="M390.233 298.776C388.108 304.829 388.709 312.998 389.186 316.965C389.363 318.432 389.526 319.325 389.526 319.325C389.526 319.325 386.35 326.561 386.085 326.835C385.82 327.109 376.736 332.654 376.736 332.654L370.387 336.361C370.387 336.361 363.946 333.538 367.034 332.566C367.665 332.312 368.233 331.925 368.699 331.43C371.792 328.492 375.676 321.189 375.676 321.189C375.676 321.189 375.941 317.482 376.913 315.719C377.885 313.957 377.531 295.432 377.531 295.432L377.606 265.234V261.297L389.69 261.386C389.766 262.722 389.94 264.051 390.211 265.362C390.645 267.625 391.207 269.861 391.894 272.06C394.024 278.948 393.14 290.483 390.233 298.776Z"
        fill="#FFB0B1" />
    <path opacity="0.1"
        d="M389.526 319.325C389.526 319.325 386.35 326.561 386.085 326.835C385.82 327.109 376.736 332.654 376.736 332.654L370.387 336.361C370.387 336.361 363.946 333.538 367.034 332.566C367.665 332.312 368.233 331.925 368.699 331.43L368.973 333.361L371.09 333.272L389.204 316.974C389.363 318.432 389.526 319.325 389.526 319.325Z"
        fill="black" />
    <path
        d="M389.306 317.385L371.091 333.794L368.974 333.882L368.532 330.79C368.532 330.79 364.83 335.552 356.604 335.287C356.604 335.287 351.664 338.552 358.985 338.729C366.306 338.906 375.654 338.464 375.654 338.464C375.654 338.464 382.184 328.302 387.65 329.628V337.302H389.328V329.557C390.109 329.032 390.775 328.354 391.287 327.564C391.799 326.774 392.145 325.889 392.306 324.962C392.452 324.007 392.349 323.031 392.007 322.127C391.666 321.223 391.098 320.423 390.358 319.802C390.027 319.492 389.763 319.118 389.583 318.702C389.402 318.287 389.308 317.838 389.306 317.385Z"
        fill="#1D2366" />
    <path
        d="M432.13 308.213C430.955 312.41 431.596 314.774 432.4 316.042V316.068C433.431 317.634 434.148 319.385 434.511 321.224L434.582 321.622L426.294 333.705L421.796 335.473C421.796 335.473 414.564 333.003 415.885 332.296C416.216 332.124 416.733 331.205 417.325 329.937C419.092 326.115 421.531 319.064 421.531 319.064V319.006C421.787 316.095 422.194 313.192 422.644 310.303C423.453 305.103 421.969 292.339 421.969 292.339C421.969 292.339 421.438 276.818 420.29 273.288C419.771 271.493 419.426 269.653 419.26 267.792C419.022 265.583 418.969 263.763 418.969 263.763C418.969 263.763 423.731 257.136 432.462 264.293C433.16 264.864 433.774 265.53 434.286 266.272C440.317 274.852 435.461 293.753 435.461 293.753C435.461 293.753 434.246 300.627 432.13 308.213Z"
        fill="#FFB0B1" />
    <path opacity="0.1"
        d="M434.596 321.622L426.308 333.706L421.81 335.473C421.81 335.473 414.577 333.003 415.898 332.296C416.23 332.124 416.747 331.205 417.339 329.937C420.401 329.91 421.987 332.826 421.987 332.826L425.866 332.208C425.866 332.208 430.982 322.152 432.131 321.538C433.279 320.924 432.307 316.948 432.307 316.948V315.936C432.338 315.971 432.365 316.011 432.4 316.046V316.073C433.431 317.639 434.149 319.39 434.512 321.229L434.596 321.622Z"
        fill="black" />
    <path
        d="M422.251 333.087C422.251 333.087 420.042 329.031 415.81 330.529C415.81 330.529 413.428 335.389 411.047 336.175C408.666 336.961 409.461 339.612 414.842 338.645C420.223 337.677 428.335 336.877 428.335 336.877L428.688 331.934L434.158 324.966C434.158 324.966 437.419 322.011 432.568 316.192V317.204C432.568 317.204 433.54 321.18 432.391 321.794C431.242 322.408 426.144 332.468 426.144 332.468L422.251 333.087Z"
        fill="#1D2366" />
    <path opacity="0.1"
        d="M389.703 261.377C389.779 262.713 389.954 264.042 390.225 265.353C385.25 264.624 380.633 264.987 377.606 265.225V261.289L389.703 261.377Z"
        fill="black" />
    <path opacity="0.1"
        d="M434.777 267.372C434.777 267.372 427.708 267.717 419.278 267.788C419.039 265.578 418.986 263.758 418.986 263.758C418.986 263.758 423.749 257.131 432.479 264.288C433.177 264.859 433.792 265.526 434.304 266.268C434.441 266.644 434.599 267.013 434.777 267.372Z"
        fill="black" />
    <path
        d="M434.777 266.577C434.777 266.577 403.815 268.075 394.378 265.428C384.941 262.782 375.588 265.075 374.179 264.461C372.769 263.847 373.914 254.228 375.151 251.847C376.388 249.466 383.174 225.383 383.174 225.383L389.704 191.337L396.583 189.441L397.069 189.304L409.055 186L417.838 183.574C417.838 183.574 435.303 251.759 433.805 256.786C433.261 258.712 433.174 260.737 433.549 262.702C433.778 264.044 434.191 265.348 434.777 266.577Z"
        fill="#1D2366" />
    <path
        d="M366.942 168.054C366.942 168.054 360.756 174.681 365.44 178.374C370.123 182.068 373.202 178.728 373.202 178.728L366.942 168.054Z"
        fill="#C7DAF5" />
    <path opacity="0.1"
        d="M366.942 168.054C366.942 168.054 360.756 174.681 365.44 178.374C370.123 182.068 373.202 178.728 373.202 178.728L366.942 168.054Z"
        fill="black" />
    <path
        d="M416.914 124.483C416.914 124.483 416.189 125.172 415.098 126.188C413.543 127.642 411.241 129.767 409.2 131.547C406.372 134.008 404.04 135.815 404.875 134.273C405.71 132.731 405.551 130.045 405.135 127.531C405.104 127.363 405.078 127.195 405.047 127.032C404.703 125.186 404.247 123.362 403.682 121.571C403.682 121.571 408.25 115.669 410.777 113.34C411.718 112.457 412.376 112.094 412.416 112.709C412.46 113.535 413.079 115.359 413.848 117.294C413.87 117.356 413.892 117.414 413.918 117.476C414.431 118.801 415.01 120.162 415.518 121.337C416.295 123.14 416.914 124.483 416.914 124.483Z"
        fill="#FFB0B1" />
    <path opacity="0.1"
        d="M413.918 117.475C413.489 119.784 412.447 121.936 410.902 123.705C409.357 125.474 407.366 126.795 405.135 127.531C404.784 125.514 404.298 123.523 403.682 121.571C403.682 121.571 412.284 110.459 412.416 112.708C412.447 113.561 413.119 115.452 413.918 117.475Z"
        fill="black" />
    <path opacity="0.1"
        d="M404.279 130.5L405.392 128.932C405.392 128.932 406.13 133.429 408.843 131.446C411.556 129.462 411.688 146.374 411.688 146.374L408.777 189.906L387.738 188.647L388.334 167.612L390.716 157.009L396.605 141.594L400.108 136.5L404.279 130.5Z"
        fill="black" />
    <path
        d="M411.688 146.643L409.037 186.004L408.759 190.175L397.029 189.472L396.587 189.446L387.751 188.916L388.347 167.877L390.729 157.273L396.618 141.859L400.122 136.765L404.292 130.743L405.406 129.179C405.406 129.179 406.143 133.676 408.856 131.693L408.914 131.653C411.564 129.974 411.688 146.643 411.688 146.643Z"
        fill="#1D2366" />
    <path
        d="M391.024 153.589C391.024 153.589 389.968 155.798 387.848 155.44C385.727 155.082 385.731 163.393 385.731 163.393C385.731 163.393 384.322 164.718 383.35 163.569C382.378 162.421 379.816 166.304 379.816 166.304L363.76 167.011C363.76 167.011 370.904 170.276 369.504 180.155C369.504 180.155 393.759 178.653 394.554 176.36C395.35 174.067 391.024 153.589 391.024 153.589Z"
        fill="white" />
    <path opacity="0.03"
        d="M391.024 153.589C391.024 153.589 389.968 155.798 387.848 155.44C385.727 155.082 385.731 163.393 385.731 163.393C385.731 163.393 384.322 164.718 383.35 163.569C382.378 162.421 379.816 166.304 379.816 166.304L363.76 167.011C363.76 167.011 370.904 170.276 369.504 180.155C369.504 180.155 393.759 178.653 394.554 176.36C395.35 174.067 391.024 153.589 391.024 153.589Z"
        fill="black" />
    <path d="M344.365 172.202L348.597 175.816L383.438 183.137L379.117 178.728L344.365 172.202Z" fill="white" />
    <path
        d="M404.345 131.892C403.767 132.775 402.11 137.299 400.727 141.249C399.574 144.541 398.611 147.434 398.611 147.434C398.611 147.434 396.362 162.076 395.213 164.722C394.065 167.369 394.687 177.69 394.687 177.69L390.406 203.178C390.406 203.178 388.467 216.321 385.471 224.172C382.516 231.9 379.224 235.522 379.123 235.637C380.448 233.843 387.672 198.525 387.672 198.525L390.057 153.982C390.057 153.982 390.406 149.75 390.76 146.131C391.113 142.513 398.271 137.573 398.271 137.573L405.172 127.761C405.865 128.689 405.401 130.306 404.345 131.892Z"
        fill="white" />
    <path
        d="M386.35 189.137C386.35 189.137 376.189 188.695 371.267 182.784C366.345 176.872 382.644 180.424 382.644 180.424L386.88 181.396L386.35 189.137Z"
        fill="#FFB0B1" />
    <path opacity="0.1"
        d="M433.805 256.791C433.261 258.716 433.173 260.742 433.549 262.707C422.464 263.493 410.606 260.498 410.606 260.498C408.396 262.53 402.578 265.525 402.578 265.525L399.406 226.204C397.378 220.903 396.583 193.126 396.583 193.126C396.583 193.126 396.764 191.673 397.024 189.495C397.024 189.441 397.024 189.384 397.046 189.331C397.837 183.247 399.406 171.827 400.174 170.285C401.235 168.164 396.914 162.522 396.914 162.522L398.88 145.755L399.118 143.732C403.263 141.881 406.439 135.969 406.439 135.969L408.878 131.697C411.529 129.996 411.666 146.666 411.666 146.666L409.015 186.026L417.798 183.601C417.798 183.601 435.303 251.763 433.805 256.791Z"
        fill="black" />
    <path
        d="M445.182 259.508C433.098 265.508 411.136 259.95 411.136 259.95C408.927 261.982 403.108 264.978 403.108 264.978L399.932 225.657C397.908 220.355 397.113 192.579 397.113 192.579C397.113 192.579 399.666 171.853 400.727 169.737C401.036 169.119 400.886 168.2 400.519 167.21C398.716 162.5 398.053 157.43 398.584 152.414L399.432 145.208L399.666 143.189C403.815 141.333 406.992 135.422 406.992 135.422L409.201 131.552L413.265 124.421L415.192 121.045L415.519 121.341L418.015 123.603C418.015 123.603 419.075 124.487 420.666 125.813C424.125 128.728 430.103 133.862 433.186 137.004C435.899 139.769 436.756 150.527 437.004 158.626C437.167 163.958 437.07 168.138 437.07 168.138C434.335 172.64 441.488 208.784 441.488 208.784C443.154 215.769 445.182 259.508 445.182 259.508Z"
        fill="white" />
    <path opacity="0.03"
        d="M421.986 135.333C421.986 135.333 413.693 151.119 414.657 157.119C415.62 163.118 418.359 169.909 417.038 171.495C416.584 172.096 415.997 172.584 415.324 172.92C414.65 173.257 413.907 173.433 413.154 173.435C411.829 173.523 408.294 175.993 408.294 176.258C408.294 176.523 405.029 176.523 402.109 177.76C399.189 178.997 394.877 179.7 394.877 179.7C394.877 179.7 386.482 179.434 385.7 180.23C384.918 181.025 384.114 185.783 385.789 189.578C387.463 193.374 389.323 196.206 390.728 196.722C392.133 197.239 401.049 194.253 408.281 193.546C415.514 192.839 423.365 187.109 423.365 187.109C423.365 187.109 432.011 184.016 433.526 178.816C435.042 173.616 431.675 145.035 431.675 145.035C431.675 145.035 429.13 131.715 421.986 135.333Z"
        fill="black" />
    <path opacity="0.03"
        d="M420.925 134.008C420.925 134.008 412.633 149.798 413.605 155.794C414.577 161.789 417.307 168.584 415.982 170.175C415.529 170.776 414.944 171.265 414.27 171.601C413.597 171.938 412.855 172.113 412.103 172.114C410.777 172.203 407.243 174.672 407.243 174.937C407.243 175.202 403.978 175.202 401.057 176.435C398.137 177.668 393.825 178.375 393.825 178.375C393.825 178.375 385.431 178.11 384.653 178.905C383.875 179.7 383.062 184.463 384.741 188.253C386.42 192.044 388.276 194.881 389.681 195.398C391.086 195.914 400.001 192.928 407.234 192.225C414.466 191.523 422.317 185.784 422.317 185.784C422.317 185.784 430.959 182.691 432.457 177.495C433.954 172.3 430.605 143.71 430.605 143.71C430.605 143.71 428.07 130.394 420.925 134.008Z"
        fill="black" />
    <path
        d="M421.726 134.538C421.726 134.538 413.433 150.328 414.405 156.324C415.377 162.319 418.107 169.114 416.786 170.7C416.334 171.303 415.748 171.793 415.074 172.13C414.4 172.467 413.657 172.643 412.903 172.644C411.577 172.732 408.043 175.202 408.043 175.463C408.043 175.723 404.782 175.728 401.858 176.965C398.933 178.202 394.625 178.904 394.625 178.904C394.625 178.904 386.231 178.639 385.449 179.435C384.667 180.23 383.863 184.993 385.537 188.783C387.212 192.574 389.072 195.41 390.477 195.927C391.882 196.444 400.797 193.458 408.03 192.751C415.262 192.044 423.113 186.314 423.113 186.314C423.113 186.314 431.759 183.221 433.275 178.021C434.79 172.821 431.446 144.24 431.446 144.24C431.446 144.24 428.865 130.942 421.726 134.538Z"
        fill="white" />
    <path opacity="0.1"
        d="M421.545 176.89C421.545 176.89 414.917 175.565 417.224 177.774C419.53 179.983 419.517 181.918 422.34 181.829C425.163 181.741 421.545 176.89 421.545 176.89Z"
        fill="black" />
    <path opacity="0.1"
        d="M432.744 224.42C432.744 224.42 429.749 226.448 435.479 231.122C441.209 235.796 432.744 224.42 432.744 224.42Z"
        fill="black" />
    <path opacity="0.1"
        d="M427.027 241.089C427.027 241.354 425.967 250.809 429.934 253.173C433.902 255.536 427.027 241.089 427.027 241.089Z"
        fill="black" />
    <path
        d="M364.034 166.989C360.836 167.099 353.926 168.076 357.509 174.76C360.677 180.676 366 176.722 368.996 173.722C368.265 170.925 366.489 168.515 364.034 166.989Z"
        fill="#FFB0B1" />
    <path d="M369.036 173.669L369.168 173.532L369.036 173.669Z" fill="#FFB0B1" />
    <path opacity="0.1"
        d="M420.665 126.082C417.272 128.401 414.427 130.358 413.87 130.765C412.351 131.891 409.452 138.505 407.584 141.881C406.095 144.598 401.257 145.296 399.432 145.468L399.666 143.449C403.815 141.594 406.992 135.682 406.992 135.682L415.191 121.306L418.015 123.873C418.015 123.873 419.075 124.756 420.665 126.082Z"
        fill="black" />
    <path
        d="M420.665 125.816C417.272 128.136 414.427 130.093 413.87 130.504C412.351 131.626 409.452 138.24 407.584 141.616C406.095 144.333 401.257 145.031 399.432 145.203L399.666 143.184C403.815 141.328 406.992 135.417 406.992 135.417L415.191 121.041L418.015 123.599C418.015 123.599 419.075 124.473 420.665 125.816Z"
        fill="#DCE7FF" />
    <path
        d="M414.135 114.559C414.137 117.211 413.332 119.802 411.829 121.986C410.053 124.569 407.409 126.43 404.379 127.231C401.348 128.032 398.131 127.72 395.311 126.351C392.49 124.983 390.254 122.649 389.008 119.773C387.761 116.897 387.587 113.669 388.516 110.675C389.446 107.682 391.418 105.121 394.074 103.457C396.731 101.792 399.896 101.136 402.995 101.606C406.094 102.075 408.922 103.641 410.966 106.017C413.01 108.394 414.134 111.425 414.135 114.559Z"
        fill="#FFB0B1" />
    <path opacity="0.1"
        d="M437.003 158.63C435.209 157.526 433.748 155.956 432.775 154.088C432.037 152.63 431.547 150.947 430.288 149.913C429.152 148.985 427.637 148.76 426.223 148.345C421.575 146.97 417.678 142.729 417.533 137.887C417.462 135.607 418.173 133.332 417.851 131.074C417.667 129.796 417.159 128.587 416.375 127.562C415.986 127.071 415.559 126.612 415.098 126.188C414.48 125.605 413.83 125.039 413.265 124.421C412.909 124.038 412.597 123.615 412.337 123.161C412.127 122.79 411.957 122.398 411.829 121.991C410.945 119.287 411.749 116.079 410.777 113.344L410.724 113.194C410.358 112.222 409.611 111.25 408.573 111.175C407.535 111.1 406.647 111.962 405.657 112.346C403.585 113.15 401.349 111.78 399.622 110.384C397.894 108.988 395.946 107.393 393.75 107.702C392.297 107.91 391.148 108.9 389.809 109.412C389.507 109.529 389.195 109.619 388.877 109.682C390.01 106.856 392.091 104.514 394.764 103.056C397.436 101.599 400.533 101.118 403.521 101.696C406.51 102.273 409.204 103.874 411.141 106.222C413.078 108.57 414.137 111.52 414.135 114.564C414.137 115.483 414.04 116.4 413.848 117.299C413.87 117.36 413.892 117.418 413.919 117.48C414.431 118.805 415.01 120.166 415.518 121.341L418.014 123.603C418.014 123.603 419.075 124.487 420.665 125.812C424.124 128.728 430.102 133.862 433.186 137.003C435.899 139.778 436.747 150.531 437.003 158.63Z"
        fill="black" />
    <path
        d="M389.655 101.34C390.286 100.055 390.6 98.6143 391.356 97.395C392.465 95.6277 394.4 94.4967 396.388 93.8119C401.579 92.0225 412.549 89.4247 415.827 93.8119C416.472 94.6955 417.007 95.6763 417.899 96.286C418.58 96.7499 419.402 96.9487 420.148 97.2978C422.238 98.2786 423.572 100.417 424.284 102.599C424.995 104.782 425.207 107.124 425.728 109.372C426.395 112.257 427.566 114.992 428.733 117.709C430.107 120.917 431.565 124.244 434.215 126.51C437.834 129.603 438.634 133.981 441.991 137.374C445.968 141.404 445.839 148.053 443.789 153.332C443.52 154.026 443.215 154.751 443.321 155.488C443.427 156.226 443.975 156.898 444.492 157.485L446.666 159.937C441.523 161.179 435.704 158.493 433.31 153.779C432.572 152.321 432.082 150.642 430.818 149.604C429.687 148.676 428.167 148.455 426.758 148.04C422.11 146.661 418.213 142.415 418.067 137.573C417.997 135.298 418.708 133.022 418.385 130.769C418.206 129.483 417.696 128.265 416.905 127.235C415.69 125.649 413.857 124.584 412.867 122.817C411.193 119.861 412.465 116.022 411.259 112.849C410.888 111.877 410.146 110.905 409.107 110.83C408.069 110.755 407.181 111.617 406.187 112.001C404.119 112.805 401.884 111.44 400.156 110.04C398.429 108.639 396.481 107.048 394.28 107.362C392.827 107.565 391.682 108.555 390.344 109.072C389.354 109.452 387.348 109.792 386.482 108.957C384.653 107.274 388.89 102.913 389.655 101.34Z"
        fill="#591D4B" />
    <path opacity="0.1"
        d="M434.538 152.321C433.796 150.863 433.31 149.184 432.046 148.15C430.915 147.222 429.395 146.997 427.982 146.582C423.338 145.208 419.441 140.962 419.291 136.12C419.22 133.845 419.932 131.565 419.614 129.312C419.429 128.034 418.919 126.824 418.134 125.799C416.914 124.213 415.081 123.148 414.095 121.381C412.421 118.43 413.693 114.59 412.483 111.414C412.116 110.446 411.37 109.474 410.336 109.395C409.302 109.315 408.405 110.186 407.415 110.57C405.348 111.374 403.108 110.005 401.385 108.608C399.662 107.212 397.704 105.617 395.509 105.927C394.055 106.134 392.906 107.124 391.572 107.636C390.582 108.016 388.572 108.361 387.706 107.526C385.886 105.759 390.123 101.407 390.883 99.8429C391.515 98.5528 391.828 97.1169 392.588 95.8975C392.628 95.8313 392.672 95.765 392.716 95.6987C392.148 96.1696 391.657 96.7273 391.263 97.3511C390.507 98.5705 390.194 100.002 389.562 101.296C388.798 102.86 384.561 107.226 386.385 108.98C387.269 109.819 389.257 109.474 390.247 109.094C391.572 108.577 392.73 107.588 394.183 107.385C396.392 107.071 398.336 108.666 400.059 110.062C401.782 111.458 404.036 112.828 406.094 112.024C407.084 111.639 407.95 110.773 409.01 110.853C410.071 110.932 410.778 111.9 411.162 112.872C412.368 116.044 411.096 119.883 412.77 122.839C413.76 124.575 415.593 125.662 416.808 127.257C417.599 128.288 418.109 129.505 418.288 130.792C418.611 133.045 417.899 135.32 417.97 137.595C418.116 142.455 422.013 146.683 426.661 148.062C428.061 148.477 429.59 148.698 430.721 149.626C431.989 150.664 432.488 152.343 433.213 153.801C435.607 158.515 441.426 161.201 446.568 159.96L445.543 158.802C441.086 158.869 436.575 156.333 434.538 152.321Z"
        fill="black" />
    <path opacity="0.1"
        d="M404.08 132.157C403.501 133.04 401.844 137.564 400.461 141.514C399.167 141.01 397.992 137.798 397.992 137.798L404.893 127.981C405.6 128.953 405.136 130.566 404.08 132.157Z"
        fill="black" />
    <path
        d="M404.345 131.891C403.766 132.775 402.109 137.299 400.727 141.249C399.432 140.75 398.257 137.533 398.257 137.533L405.158 127.721C405.865 128.688 405.401 130.305 404.345 131.891Z"
        fill="#DCE7FF" />
    <path
        d="M364.22 177.027L360.394 164.961C360.348 164.82 360.331 164.671 360.344 164.523C360.356 164.376 360.398 164.232 360.466 164.1C360.534 163.968 360.627 163.851 360.741 163.756C360.854 163.66 360.986 163.588 361.127 163.543C361.412 163.454 361.72 163.481 361.985 163.619C362.25 163.756 362.449 163.993 362.541 164.276L366.367 176.329L365.987 178.852L364.22 177.027Z"
        fill="#BE8B87" />
    <path opacity="0.1"
        d="M360.757 163.901C361.042 163.811 361.351 163.837 361.617 163.975C361.883 164.112 362.084 164.349 362.175 164.634L366.001 176.687L365.714 178.578L365.992 178.869L366.372 176.347L362.524 164.294C362.433 164.01 362.233 163.774 361.968 163.636C361.703 163.499 361.395 163.472 361.11 163.561C360.87 163.638 360.664 163.794 360.522 164.002C360.598 163.962 360.676 163.928 360.757 163.901Z"
        fill="white" />
    <path d="M364.22 177.027L366.367 176.347L366.053 178.414L365.987 178.869L365.36 178.216L364.22 177.027Z"
        fill="#EFC8C4" />
    <path
        d="M365.36 178.215C365.397 178.168 365.444 178.129 365.497 178.1C365.528 178.081 365.564 178.07 365.601 178.07C365.637 178.07 365.673 178.081 365.704 178.1C365.735 178.137 365.76 178.177 365.78 178.22C365.809 178.268 365.849 178.31 365.896 178.341C365.943 178.373 365.997 178.393 366.054 178.401L365.987 178.843L365.36 178.215Z"
        fill="#727A9C" />
    <path
        d="M360.372 169.247C360.372 169.247 368.046 169.202 366.239 172.467C364.432 175.732 361.609 176.126 361.609 176.126L360.372 169.247Z"
        fill="#FFB0B1" />
    <path
        d="M312.643 22.7207H312.311C299.128 22.7207 287.469 29.6969 280.762 39.991C274.055 29.6969 262.396 22.7207 249.212 22.7207H248.881C238.987 22.815 229.53 26.8101 222.565 33.8378C215.6 40.8656 211.69 50.358 211.685 60.2524C211.685 72.5391 217.066 89.9729 227.559 104.318C247.551 131.653 280.762 155.568 280.762 155.568C280.762 155.568 313.973 131.658 333.96 104.318C344.457 89.9729 349.834 72.5391 349.834 60.2524C349.829 50.3588 345.92 40.867 338.956 33.8394C331.992 26.8118 322.536 22.8161 312.643 22.7207ZM307.902 106.421C306.401 106.416 304.936 105.956 303.701 105.103C302.465 104.25 301.516 103.043 300.979 101.641H293.097C292.578 101.638 292.073 101.473 291.653 101.168C291.232 100.864 290.917 100.436 290.751 99.9445L288.33 92.6502L280.669 119.419C280.52 119.935 280.208 120.388 279.779 120.71C279.35 121.033 278.829 121.208 278.292 121.209H278.138C277.578 121.182 277.044 120.963 276.626 120.59C276.208 120.217 275.931 119.712 275.84 119.159L267.945 71.6731L262.175 99.7722C262.043 100.306 261.735 100.78 261.302 101.119C260.869 101.458 260.335 101.641 259.785 101.641H248.682C248.349 101.655 248.017 101.602 247.705 101.484C247.394 101.366 247.109 101.187 246.869 100.956C246.628 100.726 246.437 100.449 246.306 100.143C246.175 99.8363 246.108 99.5067 246.108 99.1735C246.108 98.8404 246.175 98.5107 246.306 98.2043C246.437 97.8979 246.628 97.6212 246.869 97.3906C247.109 97.1601 247.394 96.9807 247.705 96.863C248.017 96.7453 248.349 96.692 248.682 96.706H257.841L266.014 58.9269C266.148 58.3684 266.472 57.8738 266.931 57.5277C267.389 57.1816 267.954 57.0055 268.528 57.0295C269.102 57.0535 269.65 57.2761 270.078 57.6593C270.506 58.0424 270.787 58.5624 270.874 59.1302L278.937 107.57L285.803 83.6197C285.946 83.1152 286.248 82.6706 286.665 82.3521C287.081 82.0336 287.589 81.8583 288.114 81.8524H288.162C288.681 81.8526 289.187 82.0167 289.608 82.3213C290.028 82.626 290.342 83.0556 290.504 83.549L294.882 96.7193H300.882C301.308 95.4233 302.085 94.2704 303.125 93.3877C304.166 92.5051 305.43 91.9271 306.778 91.7175C308.126 91.5079 309.506 91.6749 310.765 92.2001C312.025 92.7252 313.114 93.5881 313.914 94.6934C314.714 95.7987 315.193 97.1036 315.298 98.4639C315.403 99.8243 315.13 101.187 314.51 102.402C313.889 103.617 312.945 104.637 311.781 105.35C310.618 106.062 309.28 106.439 307.915 106.439L307.902 106.421Z"
        fill="#003193" />
    <defs>
        <linearGradient id="paint0_linear_1210_657" x1="158.217" y1="342.347" x2="158.217" y2="70.4844"
            gradientUnits="userSpaceOnUse">
            <stop stop-color="#808080" stop-opacity="0.25" />
            <stop offset="0.54" stop-color="#808080" stop-opacity="0.12" />
            <stop offset="1" stop-color="#808080" stop-opacity="0.1" />
        </linearGradient>
        <linearGradient id="paint1_linear_1210_657" x1="395.514" y1="338.91" x2="395.514" y2="90.6135"
            gradientUnits="userSpaceOnUse">
            <stop stop-color="#808080" stop-opacity="0.25" />
            <stop offset="0.54" stop-color="#808080" stop-opacity="0.12" />
            <stop offset="1" stop-color="#808080" stop-opacity="0.1" />
        </linearGradient>
    </defs>
</svg>