<svg width="193" height="41" viewBox="0 0 193 41" fill="none" xmlns="http://www.w3.org/2000/svg">
<path fill-rule="evenodd" clip-rule="evenodd" d="M33.7647 1.37817C31.8618 1.37817 30.3193 2.92074 30.3193 4.82355V35.832C30.3193 38.6861 32.6333 41 35.4874 41H47.7185C58.6596 41 67.5294 32.1302 67.5294 21.1891C67.5294 10.248 58.6596 1.37817 47.7185 1.37817H33.7647ZM47.7185 11.3698H33.0756V31.0084H47.7185C53.1415 31.0084 57.5378 26.6121 57.5378 21.1891C57.5378 15.7661 53.1415 11.3698 47.7185 11.3698Z" fill="#003193"/>
<path d="M30.2159 7.74043C30.2159 4.98132 32.4526 2.74463 35.2117 2.74463C37.9708 2.74463 40.2075 4.98132 40.2075 7.74043V35.9925C40.2075 38.7516 37.9708 40.9883 35.2117 40.9883C32.4526 40.9883 30.2159 38.7516 30.2159 35.9925V7.74043Z" fill="#005CFF"/>
<path d="M28.3806 3.77222C29.9642 1.68885 32.9368 1.28369 35.0202 2.86728C37.1036 4.45087 37.5087 7.42353 35.9251 9.5069L23.8778 25.3564C22.2942 27.4397 19.3216 27.8449 17.2382 26.2613C15.1548 24.6777 14.7497 21.7051 16.3333 19.6217L28.3806 3.77222Z" fill="#005CFF"/>
<path d="M33.2574 1.37817C38.1227 1.37817 40.2075 4.82355 40.2075 7.68839C39.8598 9.74665 26.7705 6.37397 28.3209 3.96221C29.8713 1.55044 31.8676 1.37817 33.2574 1.37817Z" fill="#005CFF"/>
<path d="M21.4256 12.942C23.0749 10.7722 26.1709 10.3502 28.3407 11.9995C30.5105 13.6488 30.9325 16.7448 29.2832 18.9147L24.0726 25.7698C22.4233 27.9396 19.3273 28.3616 17.1574 26.7122C14.9876 25.0629 14.5656 21.9669 16.2149 19.7971L21.4256 12.942Z" fill="#003193"/>
<path d="M9.9916 7.74043C9.9916 4.98132 7.7549 2.74463 4.9958 2.74463C2.2367 2.74463 0 4.98132 0 7.74043V35.9925C0 38.7516 2.2367 40.9883 4.9958 40.9883C7.7549 40.9883 9.9916 38.7516 9.9916 35.9925V7.74043Z" fill="#003193"/>
<path d="M11.8264 3.77221C10.2429 1.68884 7.2702 1.28369 5.18683 2.86728C3.10346 4.45087 2.6983 7.42353 4.28189 9.5069L16.3292 25.3563C17.9128 27.4397 20.8855 27.8449 22.9688 26.2613C25.0522 24.6777 25.4573 21.705 23.8738 19.6217L11.8264 3.77221Z" fill="#003193"/>
<path d="M6.94985 1.37817C2.08494 1.37817 0 4.82355 0 7.68839C0.347501 9.74665 13.437 6.37397 11.8866 3.96221C10.3361 1.55044 8.33988 1.37817 6.94985 1.37817Z" fill="#003193"/>
<path d="M18.782 12.942C17.1326 10.7722 14.0366 10.3502 11.8668 11.9995C9.69698 13.6488 9.27501 16.7448 10.9243 18.9147L16.1349 25.7697C17.7842 27.9396 20.8803 28.3615 23.0501 26.7122C25.2199 25.0629 25.6419 21.9669 23.9926 19.7971L18.782 12.942Z" fill="#005CFF"/>
<path d="M97.7415 33.0757H94.9839L92.4797 27.4018H80.403L77.9306 33.0757H75.2363L85.1893 10.8875H87.8202L97.7415 33.0757ZM91.4654 25.0562L86.4255 13.6451L81.449 25.0562H91.4654ZM121.479 33.0757H118.848L112.826 14.1523L106.676 33.0757H104.077L96.5966 10.8875H99.3226L105.44 30.318L111.558 10.8875H114.094L120.243 30.3497L126.329 10.8875H128.991L121.479 33.0757ZM150.334 33.0757H147.576L145.072 27.4018H132.995L130.523 33.0757H127.828L137.781 10.8875H140.412L150.334 33.0757ZM144.057 25.0562L139.018 13.6451L134.041 25.0562H144.057ZM171.215 33.0757H168.33L163.671 25.9755L162.245 26.0388H156.349V33.0757H153.813V10.8875H162.245C164.02 10.8875 165.562 11.1569 166.872 11.6957C168.182 12.2239 169.197 13.0429 169.915 14.1523C170.634 15.251 170.993 16.6457 170.993 18.3364C170.993 21.9709 169.323 24.3589 165.985 25.5L171.215 33.0757ZM162.245 23.6932C164.104 23.6932 165.62 23.2812 166.793 22.457C167.966 21.6329 168.552 20.2806 168.552 18.3998C168.552 14.9764 166.45 13.2541 162.245 13.2331H156.349V23.6932H162.245ZM192.188 33.0757H176.719V10.8875H191.776V13.2331H179.255V20.682H190.444V22.9959H179.255V30.7301H192.188V33.0757Z" fill="#005CFF"/>
</svg>
